<?xml version="1.0" encoding="utf-8"?>
<!-- Generator: Adobe Illustrator 23.0.3, SVG Export Plug-In . SVG Version: 6.00 Build 0)  -->
<svg version="1.1" id="Layer_1" xmlns="http://www.w3.org/2000/svg" xmlns:xlink="http://www.w3.org/1999/xlink" x="0px" y="0px"
	 viewBox="0 0 810 524" style="enable-background:new 0 0 810 524;" xml:space="preserve">
<style type="text/css">
	.st0{fill:url(#SVGID_1_);}
	.st1{fill:url(#SVGID_2_);}
	.st2{fill:#EBEBEB;}
	.st3{fill:#FFFFFF;}
	.st4{fill:url(#SVGID_3_);}
	.st5{fill:url(#SVGID_4_);}
	.st6{fill:url(#SVGID_5_);}
	.st7{fill:url(#SVGID_6_);}
	.st8{fill:url(#SVGID_7_);}
	.st9{fill:url(#SVGID_8_);}
	.st10{fill:url(#SVGID_9_);}
	.st11{filter:url(#Adobe_OpacityMaskFilter);}
	.st12{filter:url(#Adobe_OpacityMaskFilter_1_);}
	.st13{mask:url(#SVGID_10_);fill:url(#SVGID_11_);}
	.st14{fill:url(#SVGID_12_);}
	.st15{fill:url(#SVGID_13_);}
	.st16{fill:#F4F5F6;}
	.st17{filter:url(#Adobe_OpacityMaskFilter_2_);}
	.st18{filter:url(#Adobe_OpacityMaskFilter_3_);}
	.st19{mask:url(#SVGID_14_);fill:url(#SVGID_15_);}
	.st20{opacity:0.15;fill:url(#SVGID_16_);}
</style>
<g>
	<g>
		<g>
			<linearGradient id="SVGID_1_" gradientUnits="userSpaceOnUse" x1="329.3224" y1="447.3304" x2="327.0385" y2="452.5506">
				<stop  offset="0" style="stop-color:#EEEEEE"/>
				<stop  offset="0.3322" style="stop-color:#E6E6E6"/>
				<stop  offset="0.447" style="stop-color:#E2E2E2"/>
			</linearGradient>
			<path class="st0" d="M713.49,45.32H102.96c-10.94,0-19.81,8.75-19.81,19.54v408.38h2.83V62.07c0-0.86,0.07-1.71,0.2-2.54
				c0.04-0.28,0.09-0.55,0.15-0.82c0.06-0.27,0.12-0.54,0.19-0.81c0.07-0.27,0.15-0.53,0.23-0.79c0.7-2.22,1.86-4.25,3.37-5.97
				c0.18-0.2,0.36-0.4,0.55-0.59c0.09-0.1,0.19-0.19,0.28-0.29c0.86-0.85,1.82-1.61,2.85-2.26c0.34-0.22,0.7-0.42,1.06-0.62
				c0.36-0.19,0.73-0.37,1.1-0.54c0,0,0,0,0,0c0.25-0.11,0.5-0.21,0.76-0.31c0,0,0,0,0,0c1.92-0.75,4.02-1.16,6.2-1.16h610.53
				c2.92,0,5.67,0.73,8.07,2.02c0.36,0.19,0.71,0.4,1.06,0.62c0.46,0.29,0.9,0.6,1.33,0.93c0,0,0,0,0,0
				c0.21,0.17,0.42,0.34,0.62,0.51c0,0,0,0,0,0c0.31,0.26,0.6,0.54,0.89,0.82c0.1,0.1,0.19,0.19,0.28,0.29
				c0.19,0.19,0.37,0.39,0.55,0.59c2.58,2.93,4.14,6.75,4.14,10.93v411.18h2.87V63.64C732.62,53.42,724.01,45.32,713.49,45.32z"/>
			<linearGradient id="SVGID_2_" gradientUnits="userSpaceOnUse" x1="408.1822" y1="64.8646" x2="408.1822" y2="42.5304">
				<stop  offset="0" style="stop-color:#EEEEEE"/>
				<stop  offset="0.3322" style="stop-color:#E6E6E6"/>
				<stop  offset="0.447" style="stop-color:#E2E2E2"/>
				<stop  offset="1" style="stop-color:#C5C5C5"/>
			</linearGradient>
			<path class="st1" d="M83.1,62.07c0-10.79,8.87-19.54,19.81-19.54h610.53c10.94,0,19.81,8.75,19.81,19.54v1.56
				c-0.64-10.22-9.25-18.31-19.77-18.31H102.96c-10.94,0-19.81,8.75-19.81,19.54L83.1,62.07z"/>
			<g>
				<rect x="85.98" y="461.82" class="st2" width="644.41" height="11.43"/>
				<path class="st3" d="M730.39,62.16v399.65H85.98V62.16c0-9.26,7.6-16.8,16.94-16.8h610.53
					C722.79,45.36,730.39,52.9,730.39,62.16z"/>
				<linearGradient id="SVGID_3_" gradientUnits="userSpaceOnUse" x1="83.1452" y1="473.7726" x2="733.2593" y2="473.7726">
					<stop  offset="0" style="stop-color:#EEEEEE"/>
					<stop  offset="0.3322" style="stop-color:#E6E6E6"/>
					<stop  offset="0.447" style="stop-color:#E2E2E2"/>
					<stop  offset="1" style="stop-color:#C5C5C5"/>
				</linearGradient>
				<polygon class="st4" points="733.26,473.25 733.26,474.3 730.39,474.3 730.39,474.29 85.98,474.29 85.98,474.3 83.15,474.3 
					83.15,473.25 				"/>
			</g>
		</g>
		<g>
			<g>
				<g>
					<linearGradient id="SVGID_4_" gradientUnits="userSpaceOnUse" x1="3.8611" y1="480.9705" x2="404.9305" y2="480.9705">
						<stop  offset="0" style="stop-color:#929292"/>
						<stop  offset="0.0139" style="stop-color:#C1C1C1"/>
						<stop  offset="0.0271" style="stop-color:#B2B2B2"/>
						<stop  offset="0.0487" style="stop-color:#9C9C9C"/>
						<stop  offset="0.0707" style="stop-color:#A4A4A4"/>
						<stop  offset="0.0909" style="stop-color:#B0B0B0"/>
						<stop  offset="1" style="stop-color:#CFCFCF"/>
					</linearGradient>
					<rect x="3.86" y="474.9" class="st5" width="401.07" height="12.14"/>
					<linearGradient id="SVGID_5_" gradientUnits="userSpaceOnUse" x1="3.8611" y1="474.598" x2="806" y2="474.598">
						<stop  offset="0" style="stop-color:#666666"/>
						<stop  offset="0.0139" style="stop-color:#D5D5D5"/>
						<stop  offset="0.0234" style="stop-color:#D2D2D2"/>
						<stop  offset="0.0909" style="stop-color:#BCBCBC"/>
						<stop  offset="0.9939" style="stop-color:#FFFFFF"/>
					</linearGradient>
					<rect x="3.86" y="474.3" class="st6" width="802.14" height="0.61"/>
					<linearGradient id="SVGID_6_" gradientUnits="userSpaceOnUse" x1="404.9305" y1="480.9705" x2="806" y2="480.9705">
						<stop  offset="0" style="stop-color:#CFCFCF"/>
						<stop  offset="0.9091" style="stop-color:#B0B0B0"/>
						<stop  offset="0.9293" style="stop-color:#A4A4A4"/>
						<stop  offset="0.9513" style="stop-color:#9C9C9C"/>
						<stop  offset="0.9729" style="stop-color:#B2B2B2"/>
						<stop  offset="0.9861" style="stop-color:#C1C1C1"/>
						<stop  offset="1" style="stop-color:#929292"/>
					</linearGradient>
					<rect x="404.93" y="474.9" class="st7" width="401.07" height="12.14"/>
				</g>
				<g>
					<linearGradient id="SVGID_7_" gradientUnits="userSpaceOnUse" x1="3.8611" y1="480.612" x2="404.9305" y2="480.612">
						<stop  offset="0" style="stop-color:#666666"/>
						<stop  offset="0.0139" style="stop-color:#D5D5D5"/>
						<stop  offset="0.0234" style="stop-color:#D2D2D2"/>
						<stop  offset="0.0909" style="stop-color:#BCBCBC"/>
						<stop  offset="0.9939" style="stop-color:#FFFFFF"/>
					</linearGradient>
					<rect x="3.86" y="474.9" class="st8" width="401.07" height="11.42"/>
					<linearGradient id="SVGID_8_" gradientUnits="userSpaceOnUse" x1="404.9305" y1="480.612" x2="806" y2="480.612">
						<stop  offset="0" style="stop-color:#F0F0F0"/>
						<stop  offset="0.9091" style="stop-color:#BCBCBC"/>
						<stop  offset="0.9129" style="stop-color:#B3B3B3"/>
						<stop  offset="0.9293" style="stop-color:#8F8F8F"/>
						<stop  offset="0.9427" style="stop-color:#797979"/>
						<stop  offset="0.9513" style="stop-color:#717171"/>
						<stop  offset="0.9603" style="stop-color:#878787"/>
						<stop  offset="0.979" style="stop-color:#BEBEBE"/>
						<stop  offset="0.9861" style="stop-color:#D5D5D5"/>
						<stop  offset="1" style="stop-color:#666666"/>
					</linearGradient>
					<rect x="404.93" y="474.9" class="st9" width="401.07" height="11.42"/>
				</g>
				<linearGradient id="SVGID_9_" gradientUnits="userSpaceOnUse" x1="347.8449" y1="478.9461" x2="462.0162" y2="478.9461">
					<stop  offset="0" style="stop-color:#9F9F9F"/>
					<stop  offset="0.0395" style="stop-color:#ADADAD"/>
					<stop  offset="0.514" style="stop-color:#E5E5E5"/>
					<stop  offset="0.9628" style="stop-color:#ADADAD"/>
					<stop  offset="1" style="stop-color:#9F9F9F"/>
				</linearGradient>
				<path class="st10" d="M462.02,474.3c0,2.56-1.04,4.89-2.72,6.57c-1.68,1.68-4,2.72-6.57,2.72h-95.59c-5.13,0-9.29-4.17-9.29-9.3
					H462.02z"/>
				<defs>
					<filter id="Adobe_OpacityMaskFilter" filterUnits="userSpaceOnUse" x="347.39" y="474.3" width="115.07" height="9.98">
						<feFlood  style="flood-color:white;flood-opacity:1" result="back"/>
						<feBlend  in="SourceGraphic" in2="back" mode="normal"/>
					</filter>
				</defs>
				<mask maskUnits="userSpaceOnUse" x="347.39" y="474.3" width="115.07" height="9.98" id="SVGID_10_">
					<g class="st11">
						<defs>
							<filter id="Adobe_OpacityMaskFilter_1_" filterUnits="userSpaceOnUse" x="347.39" y="474.3" width="115.07" height="9.98">
								<feFlood  style="flood-color:white;flood-opacity:1" result="back"/>
								<feBlend  in="SourceGraphic" in2="back" mode="normal"/>
							</filter>
						</defs>
						<mask maskUnits="userSpaceOnUse" x="347.39" y="474.3" width="115.07" height="9.98" id="SVGID_10_">
							<g class="st12">
							</g>
						</mask>
						<linearGradient id="SVGID_11_" gradientUnits="userSpaceOnUse" x1="347.3948" y1="479.2887" x2="462.4663" y2="479.2887">
							<stop  offset="4.122200e-04" style="stop-color:#CCCCCC"/>
							<stop  offset="0.5247" style="stop-color:#B3B3B3"/>
							<stop  offset="0.7671" style="stop-color:#B5B5B5"/>
							<stop  offset="0.891" style="stop-color:#BDBDBD"/>
							<stop  offset="0.988" style="stop-color:#CACACA"/>
							<stop  offset="1" style="stop-color:#CCCCCC"/>
						</linearGradient>
						<path class="st13" d="M462.02,474.3c0,2.56-1.04,4.89-2.72,6.57c-1.68,1.68-4,2.72-6.57,2.72h-95.59
							c-5.13,0-9.29-4.17-9.29-9.3h-0.45v0.69c0,5.13,4.17,9.29,9.3,9.29h96.48c5.14,0,9.3-4.16,9.3-9.29v-0.69H462.02z"/>
					</g>
				</mask>
				<linearGradient id="SVGID_12_" gradientUnits="userSpaceOnUse" x1="347.3948" y1="479.2887" x2="462.4663" y2="479.2887">
					<stop  offset="4.122200e-04" style="stop-color:#F6F6F6"/>
					<stop  offset="0.5247" style="stop-color:#F7F7F7"/>
					<stop  offset="1" style="stop-color:#F6F6F6"/>
				</linearGradient>
				<path class="st14" d="M462.02,474.3c0,2.56-1.04,4.89-2.72,6.57c-1.68,1.68-4,2.72-6.57,2.72h-95.59c-5.13,0-9.29-4.17-9.29-9.3
					h-0.45v0.69c0,5.13,4.17,9.29,9.3,9.29h96.48c5.14,0,9.3-4.16,9.3-9.29v-0.69H462.02z"/>
			</g>
			<linearGradient id="SVGID_13_" gradientUnits="userSpaceOnUse" x1="404.9305" y1="497.7381" x2="404.9305" y2="487.0403">
				<stop  offset="0" style="stop-color:#565656"/>
				<stop  offset="0.7389" style="stop-color:#B9B9B9"/>
				<stop  offset="0.8472" style="stop-color:#B6B6B6"/>
				<stop  offset="0.9363" style="stop-color:#ACACAC"/>
				<stop  offset="1" style="stop-color:#9F9F9F"/>
			</linearGradient>
			<path class="st15" d="M3.86,487.04c28.2,7.09,57.57,10.7,87.12,10.7h313.95h313.95c29.54,0,58.92-3.61,87.12-10.7H404.93H3.86z"
				/>
		</g>
	</g>
	<rect x="99.31" y="69.71" class="st16" width="617.75" height="382.22"/>
	<defs>
		<filter id="Adobe_OpacityMaskFilter_2_" filterUnits="userSpaceOnUse" x="205.62" y="42.53" width="527.64" height="431.76">
			<feFlood  style="flood-color:white;flood-opacity:1" result="back"/>
			<feBlend  in="SourceGraphic" in2="back" mode="normal"/>
		</filter>
	</defs>
	<mask maskUnits="userSpaceOnUse" x="205.62" y="42.53" width="527.64" height="431.76" id="SVGID_14_">
		<g class="st17">
			<defs>
				<filter id="Adobe_OpacityMaskFilter_3_" filterUnits="userSpaceOnUse" x="205.62" y="42.53" width="527.64" height="431.76">
					<feFlood  style="flood-color:white;flood-opacity:1" result="back"/>
					<feBlend  in="SourceGraphic" in2="back" mode="normal"/>
				</filter>
			</defs>
			<mask maskUnits="userSpaceOnUse" x="205.62" y="42.53" width="527.64" height="431.76" id="SVGID_14_">
				<g class="st18">
				</g>
			</mask>
			<linearGradient id="SVGID_15_" gradientUnits="userSpaceOnUse" x1="469.4387" y1="474.2953" x2="469.4387" y2="42.5311">
				<stop  offset="0" style="stop-color:#000000"/>
				<stop  offset="0.2797" style="stop-color:#020202"/>
				<stop  offset="0.4173" style="stop-color:#0A0A0A"/>
				<stop  offset="0.524" style="stop-color:#171717"/>
				<stop  offset="0.6147" style="stop-color:#2A2A2A"/>
				<stop  offset="0.6953" style="stop-color:#424242"/>
				<stop  offset="0.7688" style="stop-color:#606060"/>
				<stop  offset="0.8368" style="stop-color:#838383"/>
				<stop  offset="0.9006" style="stop-color:#ADADAD"/>
				<stop  offset="0.9586" style="stop-color:#DADADA"/>
				<stop  offset="1" style="stop-color:#FFFFFF"/>
			</linearGradient>
			<path class="st19" d="M713.45,42.53h-70.08L205.62,474.29h524.77v0h2.87V62.07C733.26,51.28,724.39,42.53,713.45,42.53z
				 M725.37,50.22c0.02,0.02,0.03,0.03,0.05,0.05c0.03,0.03,0.05,0.05,0.08,0.08L725.37,50.22z"/>
		</g>
	</mask>
	<linearGradient id="SVGID_16_" gradientUnits="userSpaceOnUse" x1="469.3403" y1="492.2633" x2="471.6371" y2="73.0258">
		<stop  offset="0" style="stop-color:#000000"/>
		<stop  offset="0.3726" style="stop-color:#020202"/>
		<stop  offset="0.5069" style="stop-color:#090909"/>
		<stop  offset="0.6026" style="stop-color:#141414"/>
		<stop  offset="0.68" style="stop-color:#252525"/>
		<stop  offset="0.7463" style="stop-color:#3B3B3B"/>
		<stop  offset="0.805" style="stop-color:#575757"/>
		<stop  offset="0.8581" style="stop-color:#777777"/>
		<stop  offset="0.9069" style="stop-color:#9D9D9D"/>
		<stop  offset="0.9523" style="stop-color:#C8C8C8"/>
		<stop  offset="0.9926" style="stop-color:#F6F6F6"/>
		<stop  offset="1" style="stop-color:#FFFFFF"/>
	</linearGradient>
	<path class="st20" d="M713.45,42.53h-70.08L205.62,474.29h524.77v0h2.87V62.07C733.26,51.28,724.39,42.53,713.45,42.53z
		 M725.37,50.22c0.02,0.02,0.03,0.03,0.05,0.05c0.03,0.03,0.05,0.05,0.08,0.08L725.37,50.22z"/>
</g>
</svg>
