<svg id="Layer_1" data-name="Layer 1" xmlns="http://www.w3.org/2000/svg" viewBox="0 0 1139.05 769.17"><defs><style>.cls-1,.cls-4,.cls-5,.cls-6{fill:none;}.cls-1,.cls-3,.cls-4,.cls-7,.cls-8{stroke:#7f3f98;}.cls-1,.cls-3,.cls-4,.cls-5,.cls-6,.cls-7,.cls-8{stroke-miterlimit:10;}.cls-1,.cls-5,.cls-6{stroke-width:1.75px;}.cls-2,.cls-3{fill:#805da7;}.cls-3,.cls-8{stroke-width:0.5px;}.cls-5{stroke:#a6a4a7;}.cls-6{stroke:#fff;}.cls-7,.cls-8{fill:#4c4d51;}.cls-9{fill:#e1e1e1;}</style></defs><title>classic2</title><rect class="cls-1" x="1.75" y="86.22" width="1134.66" height="0.3"/><rect class="cls-2" x="41.19" y="37.78" width="385.56" height="15" rx="7.5"/><rect class="cls-2" x="433.71" y="37.78" width="155.41" height="15" rx="7.5"/><rect class="cls-2" x="814.68" y="37.78" width="132.05" height="15" rx="7.5"/><rect class="cls-2" x="596.08" y="37.78" width="211.64" height="15" rx="7.5"/><rect class="cls-3" x="1072.87" y="43.78" width="18" height="3" rx="0.68"/><circle class="cls-4" cx="1081.87" cy="45.28" r="14"/><rect class="cls-5" x="0.87" y="413.72" width="1134.66" height="0.24"/><rect class="cls-5" x="3.51" y="323.5" width="1134.66" height="0.24"/><rect class="cls-6" x="3.5" y="0.9" width="1134.66" height="0.24"/><rect class="cls-5" x="1.15" y="502.14" width="1134.66" height="0.3"/><rect class="cls-5" x="1.15" y="590.81" width="1134.66" height="0.3"/><rect class="cls-5" x="2.08" y="680.08" width="1134.66" height="0.3"/><rect class="cls-2" x="267.41" y="450.79" width="355.12" height="14.21" rx="7.11"/><rect class="cls-2" x="629.49" y="451.3" width="211.55" height="14.37" rx="7.18"/><rect class="cls-2" x="42.18" y="450.67" width="218.27" height="14.21" rx="7.11"/><rect class="cls-2" x="848" y="450.66" width="161.92" height="14.52" rx="7.26"/><rect class="cls-7" x="1073" y="456.3" width="18" height="3" rx="0.68"/><circle class="cls-4" cx="1082" cy="457.8" r="14"/><rect class="cls-7" x="1070.45" y="457.27" width="18" height="3" rx="0.68" transform="translate(1540.78 -621.65) rotate(90)"/><rect class="cls-6" x="3.07" y="768.03" width="1134.66" height="0.24"/><rect class="cls-2" x="41.83" y="363.68" width="385.56" height="15" rx="7.5"/><rect class="cls-2" x="434.35" y="363.68" width="155.41" height="15" rx="7.5"/><rect class="cls-2" x="815.32" y="363.68" width="132.05" height="15" rx="7.5"/><rect class="cls-2" x="596.72" y="363.68" width="211.64" height="15" rx="7.5"/><rect class="cls-7" x="1072.65" y="368.36" width="18" height="3" rx="0.68"/><circle class="cls-4" cx="1081.65" cy="369.86" r="14"/><rect class="cls-8" x="1070.09" y="369.33" width="18" height="3" rx="0.68" transform="translate(1452.48 -709.23) rotate(90)"/><rect class="cls-2" x="268.1" y="538.94" width="355.12" height="14.21" rx="7.11"/><rect class="cls-2" x="630.18" y="539.46" width="211.55" height="14.37" rx="7.18"/><rect class="cls-2" x="42.87" y="538.83" width="218.27" height="14.21" rx="7.11"/><rect class="cls-2" x="848.69" y="538.82" width="133.26" height="14.52" rx="7.26"/><rect class="cls-7" x="1073" y="545.3" width="18" height="3" rx="0.68"/><circle class="cls-4" cx="1082" cy="546.8" r="14"/><rect class="cls-7" x="1070.45" y="546.28" width="18" height="3" rx="0.68" transform="translate(1629.78 -532.65) rotate(90)"/><rect class="cls-2" x="41.19" y="717.4" width="385.56" height="15" rx="7.5"/><rect class="cls-2" x="433.71" y="717.4" width="155.41" height="15" rx="7.5"/><rect class="cls-2" x="814.68" y="717.4" width="132.05" height="15" rx="7.5"/><rect class="cls-2" x="596.08" y="717.4" width="211.64" height="15" rx="7.5"/><rect class="cls-7" x="1073.09" y="723.4" width="18" height="3" rx="0.68"/><circle class="cls-4" cx="1082.09" cy="724.9" r="14"/><rect class="cls-7" x="1070.53" y="724.37" width="18" height="3" rx="0.68" transform="translate(1807.96 -354.64) rotate(90)"/><rect class="cls-2" x="144.72" y="628.56" width="298.98" height="14.6" rx="7.3"/><rect class="cls-2" x="450.54" y="628.95" width="250.12" height="14.6" rx="7.3"/><rect class="cls-2" x="798.96" y="628.56" width="190.83" height="15" rx="7.5"/><rect class="cls-2" x="707.5" y="628.56" width="84.61" height="14.6" rx="7.3"/><rect class="cls-2" x="41.19" y="628.56" width="96.68" height="14.6" rx="7.3"/><rect class="cls-7" x="1073.09" y="634.27" width="18" height="3" rx="0.68"/><circle class="cls-4" cx="1082.09" cy="635.77" r="14"/><rect class="cls-7" x="1070.53" y="635.25" width="18" height="3" rx="0.68" transform="translate(1718.83 -443.76) rotate(90)"/><rect class="cls-9" x="41.19" y="214.69" width="180.82" height="16.82" rx="7.42"/><rect class="cls-9" x="42.18" y="141.63" width="413.17" height="17" rx="8.5"/><rect class="cls-9" x="461.94" y="141.63" width="352.29" height="17" rx="8.5"/><rect class="cls-9" x="820.83" y="141.63" width="172.32" height="17" rx="8.5"/><rect class="cls-9" x="708.98" y="178.2" width="180.82" height="17" rx="7.5"/><rect class="cls-9" x="895.43" y="178.2" width="134.36" height="17" rx="7.5"/><rect class="cls-9" x="41.24" y="178.2" width="327.42" height="17" rx="7.5"/><rect class="cls-9" x="375.25" y="178.2" width="327.42" height="17" rx="7.5"/><rect class="cls-9" x="41.42" y="251.43" width="413.17" height="16.86" rx="7.44"/><rect class="cls-9" x="461.18" y="251.43" width="315.46" height="17" rx="7.44"/><rect class="cls-9" x="782.93" y="251.57" width="180.82" height="16.86" rx="7.44"/><rect class="cls-9" x="870.48" y="214.87" width="180.82" height="16.82" rx="7.42"/><rect class="cls-9" x="562.62" y="214.87" width="180.82" height="16.82" rx="7.42"/><rect class="cls-9" x="750.03" y="214.87" width="113.86" height="16.82" rx="7.42"/><rect class="cls-9" x="228.6" y="214.87" width="327.42" height="16.82" rx="7.42"/></svg>