<?xml version="1.0" encoding="utf-8"?>
<!-- Generator: Adobe Illustrator 23.0.3, SVG Export Plug-In . SVG Version: 6.00 Build 0)  -->
<svg version="1.1" id="Layer_1" xmlns="http://www.w3.org/2000/svg" xmlns:xlink="http://www.w3.org/1999/xlink" x="0px" y="0px"
	 viewBox="0 0 810 524" style="enable-background:new 0 0 810 524;" xml:space="preserve">
<style type="text/css">
	.st0{fill:#F4F5F6;}
	.st1{fill:url(#SVGID_1_);}
	.st2{fill:url(#SVGID_2_);}
	.st3{fill:#EBEBEB;}
	.st4{fill:#FFFFFF;}
	.st5{fill:url(#SVGID_3_);}
	.st6{fill:url(#SVGID_4_);}
	.st7{fill:url(#SVGID_5_);}
	.st8{fill:url(#SVGID_6_);}
	.st9{fill:url(#SVGID_7_);}
	.st10{fill:url(#SVGID_8_);}
	.st11{fill:url(#SVGID_9_);}
	.st12{filter:url(#Adobe_OpacityMaskFilter);}
	.st13{filter:url(#Adobe_OpacityMaskFilter_1_);}
	.st14{mask:url(#SVGID_10_);fill:url(#SVGID_11_);}
	.st15{fill:url(#SVGID_12_);}
	.st16{fill:url(#SVGID_13_);}
	.st17{filter:url(#Adobe_OpacityMaskFilter_2_);}
	.st18{filter:url(#Adobe_OpacityMaskFilter_3_);}
	.st19{mask:url(#SVGID_14_);fill:url(#SVGID_15_);}
	.st20{opacity:0.15;fill:#F4F5F6;}
	.st21{fill:none;stroke:#7F3F98;stroke-width:1.75;stroke-miterlimit:10;}
	.st22{fill:#805DA7;}
	.st23{fill:#805DA7;stroke:#7F3F98;stroke-width:0.5;stroke-miterlimit:10;}
	.st24{fill:none;stroke:#7F3F98;stroke-miterlimit:10;}
	.st25{fill:none;stroke:#A6A4A7;stroke-width:1.75;stroke-miterlimit:10;}
	.st26{fill:none;stroke:#FFFFFF;stroke-width:1.75;stroke-miterlimit:10;}
	.st27{fill:#4C4D51;stroke:#7F3F98;stroke-miterlimit:10;}
	.st28{fill:#4C4D51;stroke:#7F3F98;stroke-width:0.5;stroke-miterlimit:10;}
	.st29{fill:#E1E1E1;}
</style>
<rect x="99" y="71" class="st0" width="617" height="382"/>
<g>
	<g>
		<linearGradient id="SVGID_1_" gradientUnits="userSpaceOnUse" x1="329.3224" y1="447.3304" x2="327.0385" y2="452.5506">
			<stop  offset="0" style="stop-color:#EEEEEE"/>
			<stop  offset="0.3322" style="stop-color:#E6E6E6"/>
			<stop  offset="0.447" style="stop-color:#E2E2E2"/>
		</linearGradient>
		<path class="st1" d="M713.49,45.32H102.96c-10.94,0-19.81,8.75-19.81,19.54v408.38h2.83V62.07c0-0.86,0.07-1.71,0.2-2.54
			c0.04-0.28,0.09-0.55,0.15-0.82c0.06-0.27,0.12-0.54,0.19-0.81c0.07-0.27,0.15-0.53,0.23-0.79c0.7-2.22,1.86-4.25,3.37-5.97
			c0.18-0.2,0.36-0.4,0.55-0.59c0.09-0.1,0.19-0.19,0.28-0.29c0.86-0.85,1.82-1.61,2.85-2.26c0.34-0.22,0.7-0.42,1.06-0.62
			c0.36-0.19,0.73-0.37,1.1-0.54c0,0,0,0,0,0c0.25-0.11,0.5-0.21,0.76-0.31c0,0,0,0,0,0c1.92-0.75,4.02-1.16,6.2-1.16h610.53
			c2.92,0,5.67,0.73,8.07,2.02c0.36,0.19,0.71,0.4,1.06,0.62c0.46,0.29,0.9,0.6,1.33,0.93c0,0,0,0,0,0
			c0.21,0.17,0.42,0.34,0.62,0.51c0,0,0,0,0,0c0.31,0.26,0.6,0.54,0.89,0.82c0.1,0.1,0.19,0.19,0.28,0.29
			c0.19,0.19,0.37,0.39,0.55,0.59c2.58,2.93,4.14,6.75,4.14,10.93v411.18h2.87V63.64C732.62,53.42,724.01,45.32,713.49,45.32z"/>
		<linearGradient id="SVGID_2_" gradientUnits="userSpaceOnUse" x1="408.1822" y1="64.8646" x2="408.1822" y2="42.5304">
			<stop  offset="0" style="stop-color:#EEEEEE"/>
			<stop  offset="0.3322" style="stop-color:#E6E6E6"/>
			<stop  offset="0.447" style="stop-color:#E2E2E2"/>
			<stop  offset="1" style="stop-color:#C5C5C5"/>
		</linearGradient>
		<path class="st2" d="M83.1,62.07c0-10.79,8.87-19.54,19.81-19.54h610.53c10.94,0,19.81,8.75,19.81,19.54v1.56
			c-0.64-10.22-9.25-18.31-19.77-18.31H102.96c-10.94,0-19.81,8.75-19.81,19.54L83.1,62.07z"/>
		<g>
			<rect x="85.98" y="461.82" class="st3" width="644.41" height="11.43"/>
			<path class="st4" d="M730.39,62.16v399.65H85.98V62.16c0-9.26,7.6-16.8,16.94-16.8h610.53C722.79,45.36,730.39,52.9,730.39,62.16
				z"/>
			<linearGradient id="SVGID_3_" gradientUnits="userSpaceOnUse" x1="83.1452" y1="473.7726" x2="733.2593" y2="473.7726">
				<stop  offset="0" style="stop-color:#EEEEEE"/>
				<stop  offset="0.3322" style="stop-color:#E6E6E6"/>
				<stop  offset="0.447" style="stop-color:#E2E2E2"/>
				<stop  offset="1" style="stop-color:#C5C5C5"/>
			</linearGradient>
			<polygon class="st5" points="733.26,473.25 733.26,474.3 730.39,474.3 730.39,474.29 85.98,474.29 85.98,474.3 83.15,474.3 
				83.15,473.25 			"/>
		</g>
	</g>
	<g>
		<g>
			<g>
				<linearGradient id="SVGID_4_" gradientUnits="userSpaceOnUse" x1="3.8611" y1="480.9705" x2="404.9305" y2="480.9705">
					<stop  offset="0" style="stop-color:#929292"/>
					<stop  offset="0.0139" style="stop-color:#C1C1C1"/>
					<stop  offset="0.0271" style="stop-color:#B2B2B2"/>
					<stop  offset="0.0487" style="stop-color:#9C9C9C"/>
					<stop  offset="0.0707" style="stop-color:#A4A4A4"/>
					<stop  offset="0.0909" style="stop-color:#B0B0B0"/>
					<stop  offset="1" style="stop-color:#CFCFCF"/>
				</linearGradient>
				<rect x="3.86" y="474.9" class="st6" width="401.07" height="12.14"/>
				<linearGradient id="SVGID_5_" gradientUnits="userSpaceOnUse" x1="3.8611" y1="474.598" x2="806" y2="474.598">
					<stop  offset="0" style="stop-color:#666666"/>
					<stop  offset="0.0139" style="stop-color:#D5D5D5"/>
					<stop  offset="0.0234" style="stop-color:#D2D2D2"/>
					<stop  offset="0.0909" style="stop-color:#BCBCBC"/>
					<stop  offset="0.9939" style="stop-color:#FFFFFF"/>
				</linearGradient>
				<rect x="3.86" y="474.3" class="st7" width="802.14" height="0.61"/>
				<linearGradient id="SVGID_6_" gradientUnits="userSpaceOnUse" x1="404.9305" y1="480.9705" x2="806" y2="480.9705">
					<stop  offset="0" style="stop-color:#CFCFCF"/>
					<stop  offset="0.9091" style="stop-color:#B0B0B0"/>
					<stop  offset="0.9293" style="stop-color:#A4A4A4"/>
					<stop  offset="0.9513" style="stop-color:#9C9C9C"/>
					<stop  offset="0.9729" style="stop-color:#B2B2B2"/>
					<stop  offset="0.9861" style="stop-color:#C1C1C1"/>
					<stop  offset="1" style="stop-color:#929292"/>
				</linearGradient>
				<rect x="404.93" y="474.9" class="st8" width="401.07" height="12.14"/>
			</g>
			<g>
				<linearGradient id="SVGID_7_" gradientUnits="userSpaceOnUse" x1="3.8611" y1="480.612" x2="404.9305" y2="480.612">
					<stop  offset="0" style="stop-color:#666666"/>
					<stop  offset="0.0139" style="stop-color:#D5D5D5"/>
					<stop  offset="0.0234" style="stop-color:#D2D2D2"/>
					<stop  offset="0.0909" style="stop-color:#BCBCBC"/>
					<stop  offset="0.9939" style="stop-color:#FFFFFF"/>
				</linearGradient>
				<rect x="3.86" y="474.9" class="st9" width="401.07" height="11.42"/>
				<linearGradient id="SVGID_8_" gradientUnits="userSpaceOnUse" x1="404.9305" y1="480.612" x2="806" y2="480.612">
					<stop  offset="0" style="stop-color:#F0F0F0"/>
					<stop  offset="0.9091" style="stop-color:#BCBCBC"/>
					<stop  offset="0.9129" style="stop-color:#B3B3B3"/>
					<stop  offset="0.9293" style="stop-color:#8F8F8F"/>
					<stop  offset="0.9427" style="stop-color:#797979"/>
					<stop  offset="0.9513" style="stop-color:#717171"/>
					<stop  offset="0.9603" style="stop-color:#878787"/>
					<stop  offset="0.979" style="stop-color:#BEBEBE"/>
					<stop  offset="0.9861" style="stop-color:#D5D5D5"/>
					<stop  offset="1" style="stop-color:#666666"/>
				</linearGradient>
				<rect x="404.93" y="474.9" class="st10" width="401.07" height="11.42"/>
			</g>
			<linearGradient id="SVGID_9_" gradientUnits="userSpaceOnUse" x1="347.8449" y1="478.9461" x2="462.0162" y2="478.9461">
				<stop  offset="0" style="stop-color:#9F9F9F"/>
				<stop  offset="0.0395" style="stop-color:#ADADAD"/>
				<stop  offset="0.514" style="stop-color:#E5E5E5"/>
				<stop  offset="0.9628" style="stop-color:#ADADAD"/>
				<stop  offset="1" style="stop-color:#9F9F9F"/>
			</linearGradient>
			<path class="st11" d="M462.02,474.3c0,2.56-1.04,4.89-2.72,6.57c-1.68,1.68-4,2.72-6.57,2.72h-95.59c-5.13,0-9.29-4.17-9.29-9.3
				H462.02z"/>
			<defs>
				<filter id="Adobe_OpacityMaskFilter" filterUnits="userSpaceOnUse" x="347.39" y="474.3" width="115.07" height="9.98">
					<feFlood  style="flood-color:white;flood-opacity:1" result="back"/>
					<feBlend  in="SourceGraphic" in2="back" mode="normal"/>
				</filter>
			</defs>
			<mask maskUnits="userSpaceOnUse" x="347.39" y="474.3" width="115.07" height="9.98" id="SVGID_10_">
				<g class="st12">
					<defs>
						<filter id="Adobe_OpacityMaskFilter_1_" filterUnits="userSpaceOnUse" x="347.39" y="474.3" width="115.07" height="9.98">
							<feFlood  style="flood-color:white;flood-opacity:1" result="back"/>
							<feBlend  in="SourceGraphic" in2="back" mode="normal"/>
						</filter>
					</defs>
					<mask maskUnits="userSpaceOnUse" x="347.39" y="474.3" width="115.07" height="9.98" id="SVGID_10_">
						<g class="st13">
						</g>
					</mask>
					<linearGradient id="SVGID_11_" gradientUnits="userSpaceOnUse" x1="347.3948" y1="479.2887" x2="462.4663" y2="479.2887">
						<stop  offset="4.122200e-04" style="stop-color:#CCCCCC"/>
						<stop  offset="0.5247" style="stop-color:#B3B3B3"/>
						<stop  offset="0.7671" style="stop-color:#B5B5B5"/>
						<stop  offset="0.891" style="stop-color:#BDBDBD"/>
						<stop  offset="0.988" style="stop-color:#CACACA"/>
						<stop  offset="1" style="stop-color:#CCCCCC"/>
					</linearGradient>
					<path class="st14" d="M462.02,474.3c0,2.56-1.04,4.89-2.72,6.57c-1.68,1.68-4,2.72-6.57,2.72h-95.59
						c-5.13,0-9.29-4.17-9.29-9.3h-0.45v0.69c0,5.13,4.17,9.29,9.3,9.29h96.48c5.14,0,9.3-4.16,9.3-9.29v-0.69H462.02z"/>
				</g>
			</mask>
			<linearGradient id="SVGID_12_" gradientUnits="userSpaceOnUse" x1="347.3948" y1="479.2887" x2="462.4663" y2="479.2887">
				<stop  offset="4.122200e-04" style="stop-color:#F6F6F6"/>
				<stop  offset="0.5247" style="stop-color:#F7F7F7"/>
				<stop  offset="1" style="stop-color:#F6F6F6"/>
			</linearGradient>
			<path class="st15" d="M462.02,474.3c0,2.56-1.04,4.89-2.72,6.57c-1.68,1.68-4,2.72-6.57,2.72h-95.59c-5.13,0-9.29-4.17-9.29-9.3
				h-0.45v0.69c0,5.13,4.17,9.29,9.3,9.29h96.48c5.14,0,9.3-4.16,9.3-9.29v-0.69H462.02z"/>
		</g>
		<linearGradient id="SVGID_13_" gradientUnits="userSpaceOnUse" x1="404.9305" y1="497.7381" x2="404.9305" y2="487.0403">
			<stop  offset="0" style="stop-color:#565656"/>
			<stop  offset="0.7389" style="stop-color:#B9B9B9"/>
			<stop  offset="0.8472" style="stop-color:#B6B6B6"/>
			<stop  offset="0.9363" style="stop-color:#ACACAC"/>
			<stop  offset="1" style="stop-color:#9F9F9F"/>
		</linearGradient>
		<path class="st16" d="M3.86,487.04c28.2,7.09,57.57,10.7,87.12,10.7h313.95h313.95c29.54,0,58.92-3.61,87.12-10.7H404.93H3.86z"/>
	</g>
</g>
<rect x="99.31" y="69.71" class="st0" width="617.75" height="382.22"/>
<defs>
	<filter id="Adobe_OpacityMaskFilter_2_" filterUnits="userSpaceOnUse" x="205.62" y="42.53" width="527.64" height="431.76">
		<feFlood  style="flood-color:white;flood-opacity:1" result="back"/>
		<feBlend  in="SourceGraphic" in2="back" mode="normal"/>
	</filter>
</defs>
<mask maskUnits="userSpaceOnUse" x="205.62" y="42.53" width="527.64" height="431.76" id="SVGID_14_">
	<g class="st17">
		<defs>
			<filter id="Adobe_OpacityMaskFilter_3_" filterUnits="userSpaceOnUse" x="205.62" y="42.53" width="527.64" height="431.76">
				<feFlood  style="flood-color:white;flood-opacity:1" result="back"/>
				<feBlend  in="SourceGraphic" in2="back" mode="normal"/>
			</filter>
		</defs>
		<mask maskUnits="userSpaceOnUse" x="205.62" y="42.53" width="527.64" height="431.76" id="SVGID_14_">
			<g class="st18">
			</g>
		</mask>
		<linearGradient id="SVGID_15_" gradientUnits="userSpaceOnUse" x1="469.4387" y1="474.2953" x2="469.4387" y2="42.5311">
			<stop  offset="0" style="stop-color:#000000"/>
			<stop  offset="0.2797" style="stop-color:#020202"/>
			<stop  offset="0.4173" style="stop-color:#0A0A0A"/>
			<stop  offset="0.524" style="stop-color:#171717"/>
			<stop  offset="0.6147" style="stop-color:#2A2A2A"/>
			<stop  offset="0.6953" style="stop-color:#424242"/>
			<stop  offset="0.7688" style="stop-color:#606060"/>
			<stop  offset="0.8368" style="stop-color:#838383"/>
			<stop  offset="0.9006" style="stop-color:#ADADAD"/>
			<stop  offset="0.9586" style="stop-color:#DADADA"/>
			<stop  offset="1" style="stop-color:#FFFFFF"/>
		</linearGradient>
		<path class="st19" d="M713.45,42.53h-70.08L205.62,474.29h524.77v0h2.87V62.07C733.26,51.28,724.39,42.53,713.45,42.53z
			 M725.37,50.22c0.02,0.02,0.03,0.03,0.05,0.05c0.03,0.03,0.05,0.05,0.08,0.08L725.37,50.22z"/>
	</g>
</mask>
<path class="st20" d="M713.45,42.53h-70.08L205.62,474.29h524.77v0h2.87V62.07C733.26,51.28,724.39,42.53,713.45,42.53z
	 M725.37,50.22c0.02,0.02,0.03,0.03,0.05,0.05c0.03,0.03,0.05,0.05,0.08,0.08L725.37,50.22z"/>
<rect x="100.16" y="112.36" class="st21" width="615.88" height="0.15"/>
<path class="st22" d="M125.64,88.31h201.14c2.25,0,4.07,1.67,4.07,3.72l0,0c0,2.06-1.82,3.72-4.07,3.72H125.64
	c-2.25,0-4.07-1.67-4.07-3.72l0,0C121.57,89.98,123.39,88.31,125.64,88.31z"/>
<path class="st22" d="M338.7,88.31h76.21c2.25,0,4.07,1.67,4.07,3.72l0,0c0,2.06-1.82,3.72-4.07,3.72H338.7
	c-2.25,0-4.07-1.67-4.07-3.72l0,0C334.63,89.98,336.45,88.31,338.7,88.31z"/>
<path class="st22" d="M545.48,88.31h63.53c2.25,0,4.07,1.67,4.07,3.72l0,0c0,2.06-1.82,3.72-4.07,3.72h-63.53
	c-2.25,0-4.07-1.67-4.07-3.72l0,0C541.41,89.98,543.24,88.31,545.48,88.31z"/>
<path class="st22" d="M426.83,88.31h106.73c2.25,0,4.07,1.67,4.07,3.72l0,0c0,2.06-1.82,3.72-4.07,3.72H426.83
	c-2.25,0-4.07-1.67-4.07-3.72l0,0C422.76,89.98,424.58,88.31,426.83,88.31z"/>
<path class="st23" d="M681.92,91.29h9.03c0.2,0,0.37,0.15,0.37,0.34v0.81c0,0.19-0.17,0.34-0.37,0.34h-9.03
	c-0.2,0-0.37-0.15-0.37-0.34v-0.81C681.56,91.44,681.72,91.29,681.92,91.29z"/>
<ellipse class="st24" cx="686.44" cy="92.03" rx="7.6" ry="6.95"/>
<rect x="99.68" y="274.97" class="st25" width="615.88" height="0.12"/>
<rect x="101.12" y="230.17" class="st25" width="615.88" height="0.12"/>
<rect x="101.11" y="70" class="st26" width="615.88" height="0.12"/>
<rect x="99.84" y="318.87" class="st25" width="615.88" height="0.15"/>
<rect x="99.84" y="362.89" class="st25" width="615.88" height="0.15"/>
<rect x="100.34" y="407.21" class="st25" width="615.88" height="0.15"/>
<path class="st22" d="M248.22,293.37h185.04c2.13,0,3.86,1.58,3.86,3.53v0c0,1.95-1.73,3.53-3.86,3.53H248.22
	c-2.13,0-3.86-1.58-3.86-3.53v0C244.36,294.95,246.09,293.37,248.22,293.37z"/>
<path class="st22" d="M444.79,293.62h107.03c2.15,0,3.9,1.6,3.9,3.56v0c0,1.97-1.74,3.56-3.9,3.56H444.79c-2.15,0-3.9-1.6-3.9-3.56
	v0C440.89,295.22,442.64,293.62,444.79,293.62z"/>
<path class="st22" d="M125.97,293.31h110.76c2.13,0,3.86,1.58,3.86,3.53v0c0,1.95-1.73,3.53-3.86,3.53H125.97
	c-2.13,0-3.86-1.58-3.86-3.53v0C122.11,294.89,123.83,293.31,125.97,293.31z"/>
<path class="st22" d="M563.44,293.31h80.01c2.18,0,3.94,1.61,3.94,3.6v0c0,1.99-1.76,3.6-3.94,3.6h-80.01
	c-2.18,0-3.94-1.61-3.94-3.6v0C559.5,294.92,561.26,293.31,563.44,293.31z"/>
<path class="st27" d="M682,296.11h9.03c0.2,0,0.37,0.15,0.37,0.34v0.81c0,0.19-0.17,0.34-0.37,0.34H682c-0.2,0-0.37-0.15-0.37-0.34
	v-0.81C681.63,296.26,681.79,296.11,682,296.11z"/>
<ellipse class="st24" cx="686.51" cy="296.85" rx="7.6" ry="6.95"/>
<path class="st27" d="M687.33,292.72v8.26c0,0.19-0.17,0.34-0.37,0.34h-0.89c-0.2,0-0.37-0.15-0.37-0.34v-8.26
	c0-0.19,0.17-0.34,0.37-0.34h0.89C687.17,292.38,687.33,292.53,687.33,292.72z"/>
<rect x="100.88" y="450.88" class="st26" width="615.88" height="0.12"/>
<path class="st22" d="M125.99,250.12h201.14c2.25,0,4.07,1.67,4.07,3.72l0,0c0,2.06-1.82,3.72-4.07,3.72H125.99
	c-2.25,0-4.07-1.67-4.07-3.72l0,0C121.92,251.79,123.74,250.12,125.99,250.12z"/>
<path class="st22" d="M339.04,250.12h76.21c2.25,0,4.07,1.67,4.07,3.72l0,0c0,2.06-1.82,3.72-4.07,3.72h-76.21
	c-2.25,0-4.07-1.67-4.07-3.72l0,0C334.97,251.79,336.8,250.12,339.04,250.12z"/>
<path class="st22" d="M545.83,250.12h63.53c2.25,0,4.07,1.67,4.07,3.72l0,0c0,2.06-1.82,3.72-4.07,3.72h-63.53
	c-2.25,0-4.07-1.67-4.07-3.72l0,0C541.76,251.79,543.58,250.12,545.83,250.12z"/>
<path class="st22" d="M427.18,250.12h106.73c2.25,0,4.07,1.67,4.07,3.72l0,0c0,2.06-1.82,3.72-4.07,3.72H427.18
	c-2.25,0-4.07-1.67-4.07-3.72l0,0C423.11,251.79,424.93,250.12,427.18,250.12z"/>
<path class="st27" d="M681.81,252.44h9.03c0.2,0,0.37,0.15,0.37,0.34v0.81c0,0.19-0.17,0.34-0.37,0.34h-9.03
	c-0.2,0-0.37-0.15-0.37-0.34v-0.81C681.44,252.6,681.6,252.44,681.81,252.44z"/>
<ellipse class="st24" cx="686.32" cy="253.19" rx="7.6" ry="6.95"/>
<path class="st28" d="M687.14,249.06v8.26c0,0.19-0.17,0.34-0.37,0.34h-0.89c-0.2,0-0.37-0.15-0.37-0.34v-8.26
	c0-0.19,0.17-0.34,0.37-0.34h0.89C686.97,248.72,687.14,248.87,687.14,249.06z"/>
<path class="st22" d="M248.59,337.14h185.04c2.13,0,3.86,1.58,3.86,3.53v0c0,1.95-1.73,3.53-3.86,3.53H248.59
	c-2.13,0-3.86-1.58-3.86-3.53v0C244.73,338.72,246.46,337.14,248.59,337.14z"/>
<path class="st22" d="M445.16,337.4H552.2c2.15,0,3.9,1.6,3.9,3.56v0c0,1.97-1.74,3.56-3.9,3.56H445.16c-2.15,0-3.9-1.6-3.9-3.56v0
	C441.27,338.99,443.01,337.4,445.16,337.4z"/>
<path class="st22" d="M126.34,337.08H237.1c2.13,0,3.86,1.58,3.86,3.53v0c0,1.95-1.73,3.53-3.86,3.53H126.34
	c-2.13,0-3.86-1.58-3.86-3.53v0C122.48,338.66,124.21,337.08,126.34,337.08z"/>
<path class="st22" d="M563.81,337.08h64.45c2.18,0,3.94,1.61,3.94,3.6l0,0c0,1.99-1.76,3.6-3.94,3.6h-64.45
	c-2.18,0-3.94-1.61-3.94-3.6l0,0C559.87,338.69,561.64,337.08,563.81,337.08z"/>
<path class="st27" d="M682,340.3h9.03c0.2,0,0.37,0.15,0.37,0.34v0.81c0,0.19-0.17,0.34-0.37,0.34H682c-0.2,0-0.37-0.15-0.37-0.34
	v-0.81C681.63,340.45,681.79,340.3,682,340.3z"/>
<ellipse class="st24" cx="686.51" cy="341.04" rx="7.6" ry="6.95"/>
<path class="st27" d="M687.33,336.91v8.26c0,0.19-0.17,0.34-0.37,0.34h-0.89c-0.2,0-0.37-0.15-0.37-0.34v-8.26
	c0-0.19,0.17-0.34,0.37-0.34h0.89C687.16,336.57,687.33,336.72,687.33,336.91z"/>
<path class="st22" d="M125.64,425.74h201.14c2.25,0,4.07,1.67,4.07,3.72l0,0c0,2.06-1.82,3.72-4.07,3.72H125.64
	c-2.25,0-4.07-1.67-4.07-3.72l0,0C121.57,427.41,123.39,425.74,125.64,425.74z"/>
<path class="st22" d="M338.7,425.74h76.21c2.25,0,4.07,1.67,4.07,3.72l0,0c0,2.06-1.82,3.72-4.07,3.72H338.7
	c-2.25,0-4.07-1.67-4.07-3.72l0,0C334.63,427.41,336.45,425.74,338.7,425.74z"/>
<path class="st22" d="M545.48,425.74h63.53c2.25,0,4.07,1.67,4.07,3.72l0,0c0,2.06-1.82,3.72-4.07,3.72h-63.53
	c-2.25,0-4.07-1.67-4.07-3.72l0,0C541.41,427.41,543.24,425.74,545.48,425.74z"/>
<path class="st22" d="M426.83,425.74h106.73c2.25,0,4.07,1.67,4.07,3.72l0,0c0,2.06-1.82,3.72-4.07,3.72H426.83
	c-2.25,0-4.07-1.67-4.07-3.72l0,0C422.76,427.41,424.58,425.74,426.83,425.74z"/>
<path class="st27" d="M682.04,428.72h9.03c0.2,0,0.37,0.15,0.37,0.34v0.81c0,0.19-0.17,0.34-0.37,0.34h-9.03
	c-0.2,0-0.37-0.15-0.37-0.34v-0.81C681.68,428.87,681.84,428.72,682.04,428.72z"/>
<ellipse class="st24" cx="686.56" cy="429.47" rx="7.6" ry="6.95"/>
<path class="st27" d="M687.37,425.33v8.26c0,0.19-0.17,0.34-0.37,0.34h-0.89c-0.2,0-0.37-0.15-0.37-0.34v-8.26
	c0-0.19,0.17-0.34,0.37-0.34h0.89C687.21,424.99,687.37,425.14,687.37,425.33z"/>
<path class="st22" d="M181.73,381.63h154.36c2.19,0,3.96,1.62,3.96,3.62l0,0c0,2-1.77,3.62-3.96,3.62H181.73
	c-2.19,0-3.96-1.62-3.96-3.62l0,0C177.76,383.26,179.54,381.63,181.73,381.63z"/>
<path class="st22" d="M347.72,381.83h127.84c2.19,0,3.96,1.62,3.96,3.62l0,0c0,2-1.77,3.62-3.96,3.62H347.72
	c-2.19,0-3.96-1.62-3.96-3.62l0,0C343.76,383.45,345.53,381.83,347.72,381.83z"/>
<path class="st22" d="M536.95,381.63h95.44c2.25,0,4.07,1.67,4.07,3.72l0,0c0,2.06-1.82,3.72-4.07,3.72h-95.44
	c-2.25,0-4.07-1.67-4.07-3.72l0,0C532.88,383.3,534.7,381.63,536.95,381.63z"/>
<path class="st22" d="M487.2,381.63h38c2.19,0,3.96,1.62,3.96,3.62l0,0c0,2-1.77,3.62-3.96,3.62h-38c-2.19,0-3.96-1.62-3.96-3.62
	l0,0C483.24,383.26,485.01,381.63,487.2,381.63z"/>
<path class="st22" d="M125.53,381.63h44.55c2.19,0,3.96,1.62,3.96,3.62l0,0c0,2-1.77,3.62-3.96,3.62h-44.55
	c-2.19,0-3.96-1.62-3.96-3.62l0,0C121.57,383.26,123.34,381.63,125.53,381.63z"/>
<path class="st27" d="M682.04,384.47h9.03c0.2,0,0.37,0.15,0.37,0.34v0.81c0,0.19-0.17,0.34-0.37,0.34h-9.03
	c-0.2,0-0.37-0.15-0.37-0.34v-0.81C681.68,384.62,681.84,384.47,682.04,384.47z"/>
<ellipse class="st24" cx="686.56" cy="385.21" rx="7.6" ry="6.95"/>
<path class="st27" d="M687.37,381.08v8.26c0,0.19-0.17,0.34-0.37,0.34h-0.89c-0.2,0-0.37-0.15-0.37-0.34v-8.26
	c0-0.19,0.17-0.34,0.37-0.34H687C687.2,380.75,687.37,380.9,687.37,381.08z"/>
<path class="st29" d="M125.6,176.15h90.09c2.22,0,4.03,1.65,4.03,3.68v0.98c0,2.03-1.8,3.68-4.03,3.68H125.6
	c-2.22,0-4.03-1.65-4.03-3.68v-0.98C121.57,177.8,123.37,176.15,125.6,176.15z"/>
<path class="st29" d="M126.72,139.87h215.04c2.55,0,4.61,1.89,4.61,4.22l0,0c0,2.33-2.07,4.22-4.61,4.22H126.72
	c-2.55,0-4.61-1.89-4.61-4.22l0,0C122.11,141.76,124.17,139.87,126.72,139.87z"/>
<path class="st29" d="M354.56,139.87h181.99c2.55,0,4.61,1.89,4.61,4.22l0,0c0,2.33-2.07,4.22-4.61,4.22H354.56
	c-2.55,0-4.61-1.89-4.61-4.22l0,0C349.95,141.76,352.01,139.87,354.56,139.87z"/>
<path class="st29" d="M549.36,139.87h84.31c2.55,0,4.61,1.89,4.61,4.22l0,0c0,2.33-2.07,4.22-4.61,4.22h-84.31
	c-2.55,0-4.61-1.89-4.61-4.22l0,0C544.75,141.76,546.82,139.87,549.36,139.87z"/>
<path class="st29" d="M488.11,158.03h90.01c2.25,0,4.07,1.67,4.07,3.72v0.99c0,2.06-1.82,3.72-4.07,3.72h-90.01
	c-2.25,0-4.07-1.67-4.07-3.72v-0.99C484.04,159.7,485.86,158.03,488.11,158.03z"/>
<path class="st29" d="M589.31,158.03h64.79c2.25,0,4.07,1.67,4.07,3.72v0.99c0,2.06-1.82,3.72-4.07,3.72h-64.79
	c-2.25,0-4.07-1.67-4.07-3.72v-0.99C585.24,159.7,587.07,158.03,589.31,158.03z"/>
<path class="st29" d="M125.67,158.03h169.58c2.25,0,4.07,1.67,4.07,3.72v0.99c0,2.06-1.82,3.72-4.07,3.72H125.67
	c-2.25,0-4.07-1.67-4.07-3.72v-0.99C121.6,159.7,123.42,158.03,125.67,158.03z"/>
<path class="st29" d="M306.97,158.03h169.58c2.25,0,4.07,1.67,4.07,3.72v0.99c0,2.06-1.82,3.72-4.07,3.72H306.97
	c-2.25,0-4.07-1.67-4.07-3.72v-0.99C302.89,159.7,304.72,158.03,306.97,158.03z"/>
<path class="st29" d="M125.73,194.39h216.19c2.23,0,4.04,1.65,4.04,3.69v0.98c0,2.04-1.81,3.69-4.04,3.69H125.73
	c-2.23,0-4.04-1.65-4.04-3.69v-0.98C121.69,196.04,123.5,194.39,125.73,194.39z"/>
<path class="st29" d="M353.57,194.39h163.15c2.23,0,4.04,1.65,4.04,3.69v1.05c0,2.04-1.81,3.69-4.04,3.69H353.57
	c-2.23,0-4.04-1.65-4.04-3.69v-1.05C349.54,196.04,351.34,194.39,353.57,194.39z"/>
<path class="st29" d="M528.22,194.46h90.07c2.23,0,4.04,1.65,4.04,3.69v0.98c0,2.04-1.81,3.69-4.04,3.69h-90.07
	c-2.23,0-4.04-1.65-4.04-3.69v-0.98C524.18,196.11,525.99,194.46,528.22,194.46z"/>
<path class="st29" d="M575.73,176.24h90.09c2.22,0,4.03,1.65,4.03,3.68v0.98c0,2.03-1.8,3.68-4.03,3.68h-90.09
	c-2.22,0-4.03-1.65-4.03-3.68v-0.98C571.7,177.89,573.5,176.24,575.73,176.24z"/>
<path class="st29" d="M408.62,176.24h90.09c2.22,0,4.03,1.65,4.03,3.68v0.98c0,2.03-1.8,3.68-4.03,3.68h-90.09
	c-2.22,0-4.03-1.65-4.03-3.68v-0.98C404.6,177.89,406.4,176.24,408.62,176.24z"/>
<path class="st29" d="M510.35,176.24h53.75c2.22,0,4.03,1.65,4.03,3.68v0.98c0,2.03-1.8,3.68-4.03,3.68h-53.75
	c-2.22,0-4.03-1.65-4.03-3.68v-0.98C506.32,177.89,508.12,176.24,510.35,176.24z"/>
<path class="st29" d="M227.32,176.24h169.67c2.22,0,4.03,1.65,4.03,3.68v0.98c0,2.03-1.8,3.68-4.03,3.68H227.32
	c-2.22,0-4.03-1.65-4.03-3.68v-0.98C223.29,177.89,225.1,176.24,227.32,176.24z"/>
</svg>
