<svg id="Layer_1" data-name="Layer 1" xmlns="http://www.w3.org/2000/svg" viewBox="0 0 256 256"><defs><style>.cls-1{fill:#5f429a;}.cls-2{fill:#f2eff7;}.cls-3{fill:#fff;}.cls-4{fill:#7d57a4;}.cls-5{fill:#f1593d;fill-rule:evenodd;}</style></defs><title>final-icon</title><rect class="cls-1" width="256" height="256"/><rect class="cls-2" y="170.61" width="256" height="85.39"/><path class="cls-3" d="M204.52,33.51h-157A16.52,16.52,0,0,0,31,50v66.09a16.52,16.52,0,0,0,16.52,16.52H126l33,16.52-8.26-16.52h53.7A16.52,16.52,0,0,0,221,116.12V50A16.52,16.52,0,0,0,204.52,33.51Z" transform="translate(-0.04 -0.31)"/><path class="cls-4" d="M194,67.55a5.15,5.15,0,0,1,1.14.16c1.41.32,2.31.82,3.39,2.83a18.7,18.7,0,0,1,1.9,9.15,31.08,31.08,0,0,1-4,15.7c-2.92,5.2-5.05,5.2-6.07,5.2a5.63,5.63,0,0,1-1.15-.15c-1.41-.32-2.31-.82-3.34-2.75a19.53,19.53,0,0,1-1.94-9.31,30.48,30.48,0,0,1,4-15.55c3-5.28,5.19-5.28,6.12-5.28m0-12.39c-6.9,0-12.5,3.84-16.88,11.54a42.85,42.85,0,0,0-5.6,21.68,31.4,31.4,0,0,0,3.44,15.22,16.7,16.7,0,0,0,11.5,8.93,18,18,0,0,0,3.88.46c7,0,12.57-3.85,16.88-11.54a43.46,43.46,0,0,0,5.6-21.76c0-6-1.15-11-3.45-15.15a16.64,16.64,0,0,0-11.49-8.92,17.57,17.57,0,0,0-3.88-.46ZM144.39,67.55a5.08,5.08,0,0,1,1.11.15c1.37.31,2.36.85,3.42,2.84a18.7,18.7,0,0,1,1.9,9.15,31.08,31.08,0,0,1-4,15.7c-2.91,5.2-5,5.2-6.07,5.2a5.56,5.56,0,0,1-1.14-.15c-1.41-.32-2.31-.82-3.34-2.75a19.41,19.41,0,0,1-1.95-9.31,30.49,30.49,0,0,1,4-15.55c3-5.28,5.18-5.28,6.11-5.28m0-12.39c-6.9,0-12.5,3.84-16.88,11.54a43,43,0,0,0-5.6,21.68,31.4,31.4,0,0,0,3.45,15.22,16.66,16.66,0,0,0,11.49,8.93,18.19,18.19,0,0,0,3.88.46c7,0,12.57-3.85,16.88-11.54a43.36,43.36,0,0,0,5.6-21.76c0-6-1.14-11-3.44-15.15a16.8,16.8,0,0,0-11.5-8.92,17.5,17.5,0,0,0-3.88-.46Zm-41.07,66.09a6.23,6.23,0,0,1-4.64-2.09C89.61,108.92,84,95.47,80.76,84.7c-4.73,10-11.1,22.78-17.56,33.53a6.19,6.19,0,0,1-11.29-1.56C42.77,83.11,39.49,59.05,39.36,58.05a6.2,6.2,0,0,1,12.28-1.66c0,.21,2.36,17.26,8.4,42.13C69.2,81.14,76.88,63.27,77,63a6.19,6.19,0,0,1,11.83,1.6,121.21,121.21,0,0,0,9.28,30.78c3-29.6,11.86-44.77,12.31-45.52A6.2,6.2,0,0,1,121,56.27c-.1.18-11.51,20-11.51,58.78a6.22,6.22,0,0,1-6.2,6.2Z" transform="translate(-0.04 -0.31)"/><path class="cls-5" d="M209.06,213.72a46.4,46.4,0,0,1-1.94,13.94,28.87,28.87,0,0,1-4.36,8.72h4.46c2.56,0,3.28,10.52,0,10.52h-28.4A38.52,38.52,0,0,1,166.07,245a22,22,0,0,1-9.1-5.84,25.08,25.08,0,0,1-5.44-10,50.25,50.25,0,0,1-1.82-14.34,45,45,0,0,1,1.94-13.68,27.6,27.6,0,0,1,5.77-10.34,24.82,24.82,0,0,1,9.46-6.53A34.7,34.7,0,0,1,180,182a38.37,38.37,0,0,1,12.57,1.89,22,22,0,0,1,9.09,5.82,25.1,25.1,0,0,1,5.53,9.89,47.9,47.9,0,0,1,1.87,14.13Zm-13.4.64a47.6,47.6,0,0,0-.78-9,19.3,19.3,0,0,0-2.63-6.93,12.56,12.56,0,0,0-5-4.46,17,17,0,0,0-7.74-1.58,15.79,15.79,0,0,0-7.82,1.77,14.49,14.49,0,0,0-5.1,4.73,19.49,19.49,0,0,0-2.73,6.9,42.54,42.54,0,0,0-.79,8.37,49.53,49.53,0,0,0,.78,9.23,19.83,19.83,0,0,0,2.61,7,12,12,0,0,0,4.93,4.44,17.7,17.7,0,0,0,7.79,1.52,15.82,15.82,0,0,0,7.82-1.75,14.1,14.1,0,0,0,5.1-4.75,19.93,19.93,0,0,0,2.73-7,43.65,43.65,0,0,0,.79-8.52Z" transform="translate(-0.04 -0.31)"/><path d="M193.36,197.73a14,14,0,0,0-5.48-4.92,18.37,18.37,0,0,0-8.33-1.72,17.17,17.17,0,0,0-8.47,1.94,15.79,15.79,0,0,0-5.55,5.16,20.8,20.8,0,0,0-2.92,7.36c-.17.83-.31,1.68-.42,2.53a1.32,1.32,0,1,0,2.61.35c.11-.79.24-1.59.4-2.36a18.19,18.19,0,0,1,2.53-6.43,13.33,13.33,0,0,1,4.64-4.31,14.59,14.59,0,0,1,7.18-1.6,15.84,15.84,0,0,1,7.14,1.43,11.43,11.43,0,0,1,4.46,4,18.06,18.06,0,0,1,2.44,6.46,47.11,47.11,0,0,1,.75,8.73,42.45,42.45,0,0,1-.77,8.26,18.7,18.7,0,0,1-2.54,6.54,12.89,12.89,0,0,1-4.63,4.32,14.59,14.59,0,0,1-7.18,1.58,16.63,16.63,0,0,1-7.21-1.38,10.64,10.64,0,0,1-4.39-4,18.84,18.84,0,0,1-2.44-6.55c-.19-1-.34-2.09-.46-3.2a1.32,1.32,0,0,0-2.63.28c.13,1.18.3,2.32.5,3.4a21.67,21.67,0,0,0,2.79,7.48,13.45,13.45,0,0,0,5.47,4.91,19.06,19.06,0,0,0,8.37,1.66,17.1,17.1,0,0,0,8.46-1.92,15.33,15.33,0,0,0,5.57-5.19,21.45,21.45,0,0,0,2.91-7.45,45.54,45.54,0,0,0,.82-8.78,49.71,49.71,0,0,0-.8-9.22,20.64,20.64,0,0,0-2.82-7.41Z" transform="translate(-0.04 -0.31)"/><path d="M210.07,237.77c-.78-2.24-2-2.71-2.85-2.71h-2a31.41,31.41,0,0,0,3.13-7,47.78,47.78,0,0,0,2-14.34,49.39,49.39,0,0,0-1.93-14.52,26.46,26.46,0,0,0-5.82-10.39,23.22,23.22,0,0,0-9.63-6.18,39.92,39.92,0,0,0-13-2,36.3,36.3,0,0,0-13.61,2.38,26.34,26.34,0,0,0-9.95,6.88,29.16,29.16,0,0,0-6.05,10.82,46.36,46.36,0,0,0-2,14.08,51.61,51.61,0,0,0,1.88,14.72A26.31,26.31,0,0,0,156,240a23.55,23.55,0,0,0,9.63,6.18,39.72,39.72,0,0,0,13.19,2h28.4a3.11,3.11,0,0,0,2.9-2.29,10.7,10.7,0,0,0,.62-3.81,13.61,13.61,0,0,0-.67-4.35Zm-2.29,6.86c-.22.71-.47,1-.56,1h-28.4a37.5,37.5,0,0,1-12.32-1.84,20.71,20.71,0,0,1-8.56-5.49,23.87,23.87,0,0,1-5.15-9.46,49.24,49.24,0,0,1-1.76-14,44,44,0,0,1,1.87-13.28,26.68,26.68,0,0,1,5.5-9.86,23.74,23.74,0,0,1,9-6.19A33.81,33.81,0,0,1,180,183.31a37.06,37.06,0,0,1,12.13,1.82,20.58,20.58,0,0,1,8.57,5.47,24,24,0,0,1,5.23,9.38,46.89,46.89,0,0,1,1.81,13.74,45.19,45.19,0,0,1-1.88,13.55,27.72,27.72,0,0,1-4.15,8.32,1.32,1.32,0,0,0,1,2.11h4.34a5.44,5.44,0,0,1,.88,2.64A10.82,10.82,0,0,1,207.78,244.63Z" transform="translate(-0.04 -0.31)"/><path d="M163.11,215.5a1.32,1.32,0,0,0,0-2.64h0a1.32,1.32,0,0,0,0,2.64Z" transform="translate(-0.04 -0.31)"/><path class="cls-5" d="M144,240.81a18.53,18.53,0,0,1,.73,2.79,1.72,1.72,0,0,1-.38,1.55,3.31,3.31,0,0,1-1.92.64c-.9.08-2.17.12-3.76.12s-3,0-3.89-.07a9.54,9.54,0,0,1-2.14-.3,1.94,1.94,0,0,1-1-.62,2.93,2.93,0,0,1-.48-1L127,231.18H103.1l-4,12.37a3.72,3.72,0,0,1-.51,1.15,2,2,0,0,1-1,.74,7.27,7.27,0,0,1-2,.36c-.86.07-2,.11-3.4.11a31.4,31.4,0,0,1-3.52-.16,2.68,2.68,0,0,1-1.76-.7,1.91,1.91,0,0,1-.35-1.6,16.75,16.75,0,0,1,.74-2.74l19.5-56.18a4.41,4.41,0,0,1,.68-1.34,2.32,2.32,0,0,1,1.24-.78,9.49,9.49,0,0,1,2.39-.35c1-.05,2.33-.07,4-.07,1.92,0,3.46,0,4.6.07a11.61,11.61,0,0,1,2.67.35,2.67,2.67,0,0,1,1.37.8,5,5,0,0,1,.7,1.47Zm-29.06-46.48h-.05l-8.81,26.93h17.76Z" transform="translate(-0.04 -0.31)"/><path d="M146,243.41a19.1,19.1,0,0,0-.79-3v0l-19.56-56.1a6,6,0,0,0-.88-1.84.1.1,0,0,1,0-.05,3.93,3.93,0,0,0-2-1.23,12.53,12.53,0,0,0-3-.4c-1.06,0-2.5-.07-4.65-.07-1.87,0-3.12,0-4.07.07a10.93,10.93,0,0,0-2.72.41,3.54,3.54,0,0,0-1.87,1.24,5.34,5.34,0,0,0-.88,1.7L86,240.29h0a17.56,17.56,0,0,0-.78,3,3.11,3.11,0,0,0,.65,2.64A3.83,3.83,0,0,0,88.48,247a32.2,32.2,0,0,0,3.68.16c1.43,0,2.61,0,3.5-.1a8.3,8.3,0,0,0,2.38-.45,3.25,3.25,0,0,0,1.62-1.22,4.86,4.86,0,0,0,.69-1.5L104,232.48h5.15a1.3,1.3,0,0,0,0-2.6H103.1a1.29,1.29,0,0,0-1.24.9l-4,12.37v0a2.43,2.43,0,0,1-.33.75.43.43,0,0,0,0,.07,1.19,1.19,0,0,1-.4.22,5.79,5.79,0,0,1-1.62.28c-.84.06-2,.1-3.31.1a28.87,28.87,0,0,1-3.37-.15,1.82,1.82,0,0,1-.93-.26.83.83,0,0,1,0-.56,15.54,15.54,0,0,1,.68-2.51L108,185h0a3.13,3.13,0,0,1,.47-.94l0-.05s.13-.16.57-.3a9,9,0,0,1,2.06-.3c.9,0,2.12-.06,3.94-.06,2.11,0,3.51,0,4.54.06a11.5,11.5,0,0,1,2.37.3,1.44,1.44,0,0,1,.7.36,3.45,3.45,0,0,1,.48,1s0,0,0,0l19.57,56.13a17.89,17.89,0,0,1,.68,2.56,1,1,0,0,1,0,.43,2.63,2.63,0,0,1-1.13.27c-.81.08-2,.12-3.64.12-1.82,0-3,0-3.82-.07a8.71,8.71,0,0,1-1.82-.24.88.88,0,0,1-.37-.17l0,0a1.73,1.73,0,0,1-.25-.56s0,0,0-.05l-4.15-12.73a1.31,1.31,0,0,0-1.24-.89h-6.09a1.3,1.3,0,0,0,0,2.6H126l3.86,11.8a4.21,4.21,0,0,0,.7,1.44,3.17,3.17,0,0,0,1.67,1.06,11.13,11.13,0,0,0,2.44.36c.87,0,2.09.06,4,.06,1.72,0,3,0,3.87-.12a4.46,4.46,0,0,0,2.68-1l0-.05a3,3,0,0,0,.75-2.66Z" transform="translate(-0.04 -0.31)"/><path d="M124.89,222a1.32,1.32,0,0,0,.18-1.17l-8.9-26.93a1.31,1.31,0,0,0-1.24-.89h-.05a1.29,1.29,0,0,0-1.23.89l-8.82,26.94a1.31,1.31,0,0,0,1.24,1.7h17.76a1.31,1.31,0,0,0,1.06-.54Zm-17-2.06,7-21.55L122,220Z" transform="translate(-0.04 -0.31)"/><path d="M115,229.88h0a1.3,1.3,0,1,0,1.3,1.3A1.3,1.3,0,0,0,115,229.88Z" transform="translate(-0.04 -0.31)"/><path class="cls-5" d="M82.92,187.22a21.2,21.2,0,0,1-.11,2.45,5.81,5.81,0,0,1-.4,1.59,2.54,2.54,0,0,1-.6.87,1.18,1.18,0,0,1-.78.3H60.43v16.92H79.75a1.27,1.27,0,0,1,.78.24,1.9,1.9,0,0,1,.62.82,5.47,5.47,0,0,1,.38,1.56,22.78,22.78,0,0,1,0,4.86,6.25,6.25,0,0,1-.38,1.61,2.18,2.18,0,0,1-.62.89,1.17,1.17,0,0,1-.78.27H60.43V243a1.52,1.52,0,0,1-.3.93,2.12,2.12,0,0,1-1.05.64,8.71,8.71,0,0,1-1.95.42,26.61,26.61,0,0,1-3.12.15,26.52,26.52,0,0,1-3.09-.15,8.31,8.31,0,0,1-2-.42A2.39,2.39,0,0,1,47.9,244a1.47,1.47,0,0,1-.31-.93V186a3.88,3.88,0,0,1,1.09-3.09,4,4,0,0,1,2.71-.95H81a1.25,1.25,0,0,1,.78.27,2.25,2.25,0,0,1,.6.88,6,6,0,0,1,.4,1.62,22,22,0,0,1,.11,2.48Z" transform="translate(-0.04 -0.31)"/><path d="M84.08,184.59a6.77,6.77,0,0,0-.5-2,3.6,3.6,0,0,0-.94-1.33l0,0a2.56,2.56,0,0,0-1.58-.54H51.39A5.25,5.25,0,0,0,47.84,182,5.1,5.1,0,0,0,46.3,186v57a2.71,2.71,0,0,0,.61,1.74l0,0a3.72,3.72,0,0,0,1.58,1,9.61,9.61,0,0,0,2.26.48,27,27,0,0,0,3.24.16,27.13,27.13,0,0,0,3.28-.16,9.91,9.91,0,0,0,2.23-.48,3.35,3.35,0,0,0,1.64-1.09,2.8,2.8,0,0,0,.55-1.69V220.88h18a2.48,2.48,0,0,0,1.6-.55,3.56,3.56,0,0,0,1-1.38h0A7.23,7.23,0,0,0,82.8,217a19.61,19.61,0,0,0,.15-2.58,19.88,19.88,0,0,0-.15-2.61,6.77,6.77,0,0,0-.48-1.93v0a3.23,3.23,0,0,0-1-1.31,2.57,2.57,0,0,0-1.52-.48h-18v-1.39a1.29,1.29,0,1,0-2.57,0v2.68a1.28,1.28,0,0,0,1.29,1.28H79.78l0,0A1.24,1.24,0,0,1,80,211a4.15,4.15,0,0,1,.28,1.18,18.57,18.57,0,0,1,.12,2.28,18.28,18.28,0,0,1-.12,2.25,5.6,5.6,0,0,1-.29,1.27,1.84,1.84,0,0,1-.22.38H60.43a1.29,1.29,0,0,0-1.29,1.29V243a.34.34,0,0,1,0,.15,1.61,1.61,0,0,1-.46.21h0a7.85,7.85,0,0,1-1.67.34,23.88,23.88,0,0,1-3,.14,23.88,23.88,0,0,1-2.93-.14,7.44,7.44,0,0,1-1.68-.34h0a1.11,1.11,0,0,1-.48-.26.16.16,0,0,1,0-.1V186a2.75,2.75,0,0,1,.65-2.12,2.72,2.72,0,0,1,1.87-.63H81a1.5,1.5,0,0,1,.21.38h0a4.14,4.14,0,0,1,.29,1.25,20.17,20.17,0,0,1,.11,2.32,19.35,19.35,0,0,1-.11,2.29,4.62,4.62,0,0,1-.28,1.21,1.64,1.64,0,0,1-.26.42H60.43a1.29,1.29,0,0,0-1.29,1.29v2.67a1.29,1.29,0,1,0,2.57,0v-1.39H81a2.47,2.47,0,0,0,1.61-.6,3.94,3.94,0,0,0,.93-1.29v0a6.72,6.72,0,0,0,.5-2,20.49,20.49,0,0,0,.13-2.61,20.94,20.94,0,0,0-.13-2.63Z" transform="translate(-0.04 -0.31)"/><path d="M60.43,199.6h0a1.29,1.29,0,1,0,0,2.57,1.29,1.29,0,0,0,0-2.57Z" transform="translate(-0.04 -0.31)"/></svg>