<?xml version="1.0" encoding="utf-8"?>
<!-- Generator: Adobe Illustrator 23.0.3, SVG Export Plug-In . SVG Version: 6.00 Build 0)  -->
<svg version="1.1" id="Layer_1" xmlns="http://www.w3.org/2000/svg" xmlns:xlink="http://www.w3.org/1999/xlink" x="0px" y="0px"
	 viewBox="0 0 810 524" style="enable-background:new 0 0 810 524;" xml:space="preserve">
<style type="text/css">
	.st0{fill:url(#SVGID_1_);}
	.st1{fill:url(#SVGID_2_);}
	.st2{fill:#EBEBEB;}
	.st3{fill:#FFFFFF;}
	.st4{fill:url(#SVGID_3_);}
	.st5{fill:url(#SVGID_4_);}
	.st6{fill:url(#SVGID_5_);}
	.st7{fill:url(#SVGID_6_);}
	.st8{fill:url(#SVGID_7_);}
	.st9{fill:url(#SVGID_8_);}
	.st10{fill:url(#SVGID_9_);}
	.st11{filter:url(#Adobe_OpacityMaskFilter);}
	.st12{filter:url(#Adobe_OpacityMaskFilter_1_);}
	.st13{mask:url(#SVGID_10_);fill:url(#SVGID_11_);}
	.st14{fill:url(#SVGID_12_);}
	.st15{fill:url(#SVGID_13_);}
	.st16{fill:#F4F5F6;}
	.st17{filter:url(#Adobe_OpacityMaskFilter_2_);}
	.st18{filter:url(#Adobe_OpacityMaskFilter_3_);}
	.st19{mask:url(#SVGID_14_);fill:url(#SVGID_15_);}
	.st20{opacity:0.15;fill:#F4F5F6;}
	.st21{fill:#E1E1E1;}
	.st22{fill:#7D57A4;}
	.st23{fill:#E3E8F5;}
	.st24{fill:#3B3F46;}
	.st25{fill:#596980;}
	.st26{fill:#FDFEFE;}
</style>
<g>
	<g>
		<linearGradient id="SVGID_1_" gradientUnits="userSpaceOnUse" x1="329.3224" y1="447.3304" x2="327.0385" y2="452.5506">
			<stop  offset="0" style="stop-color:#EEEEEE"/>
			<stop  offset="0.3322" style="stop-color:#E6E6E6"/>
			<stop  offset="0.447" style="stop-color:#E2E2E2"/>
		</linearGradient>
		<path class="st0" d="M713.49,45.32H102.96c-10.94,0-19.81,8.75-19.81,19.54v408.38h2.83V62.07c0-0.86,0.07-1.71,0.2-2.54
			c0.04-0.28,0.09-0.55,0.15-0.82c0.06-0.27,0.12-0.54,0.19-0.81c0.07-0.27,0.15-0.53,0.23-0.79c0.7-2.22,1.86-4.25,3.37-5.97
			c0.18-0.2,0.36-0.4,0.55-0.59c0.09-0.1,0.19-0.19,0.28-0.29c0.86-0.85,1.82-1.61,2.85-2.26c0.34-0.22,0.7-0.42,1.06-0.62
			c0.36-0.19,0.73-0.37,1.1-0.54c0,0,0,0,0,0c0.25-0.11,0.5-0.21,0.76-0.31c0,0,0,0,0,0c1.92-0.75,4.02-1.16,6.2-1.16h610.53
			c2.92,0,5.67,0.73,8.07,2.02c0.36,0.19,0.71,0.4,1.06,0.62c0.46,0.29,0.9,0.6,1.33,0.93c0,0,0,0,0,0
			c0.21,0.17,0.42,0.34,0.62,0.51c0,0,0,0,0,0c0.31,0.26,0.6,0.54,0.89,0.82c0.1,0.1,0.19,0.19,0.28,0.29
			c0.19,0.19,0.37,0.39,0.55,0.59c2.58,2.93,4.14,6.75,4.14,10.93v411.18h2.87V63.64C732.62,53.42,724.01,45.32,713.49,45.32z"/>
		<linearGradient id="SVGID_2_" gradientUnits="userSpaceOnUse" x1="408.1822" y1="64.8646" x2="408.1822" y2="42.5304">
			<stop  offset="0" style="stop-color:#EEEEEE"/>
			<stop  offset="0.3322" style="stop-color:#E6E6E6"/>
			<stop  offset="0.447" style="stop-color:#E2E2E2"/>
			<stop  offset="1" style="stop-color:#C5C5C5"/>
		</linearGradient>
		<path class="st1" d="M83.1,62.07c0-10.79,8.87-19.54,19.81-19.54h610.53c10.94,0,19.81,8.75,19.81,19.54v1.56
			c-0.64-10.22-9.25-18.31-19.77-18.31H102.96c-10.94,0-19.81,8.75-19.81,19.54L83.1,62.07z"/>
		<g>
			<rect x="85.98" y="461.82" class="st2" width="644.41" height="11.43"/>
			<path class="st3" d="M730.39,62.16v399.65H85.98V62.16c0-9.26,7.6-16.8,16.94-16.8h610.53C722.79,45.36,730.39,52.9,730.39,62.16
				z"/>
			<linearGradient id="SVGID_3_" gradientUnits="userSpaceOnUse" x1="83.1452" y1="473.7726" x2="733.2593" y2="473.7726">
				<stop  offset="0" style="stop-color:#EEEEEE"/>
				<stop  offset="0.3322" style="stop-color:#E6E6E6"/>
				<stop  offset="0.447" style="stop-color:#E2E2E2"/>
				<stop  offset="1" style="stop-color:#C5C5C5"/>
			</linearGradient>
			<polygon class="st4" points="733.26,473.25 733.26,474.3 730.39,474.3 730.39,474.29 85.98,474.29 85.98,474.3 83.15,474.3 
				83.15,473.25 			"/>
		</g>
	</g>
	<g>
		<g>
			<g>
				<linearGradient id="SVGID_4_" gradientUnits="userSpaceOnUse" x1="3.8611" y1="480.9705" x2="404.9305" y2="480.9705">
					<stop  offset="0" style="stop-color:#929292"/>
					<stop  offset="0.0139" style="stop-color:#C1C1C1"/>
					<stop  offset="0.0271" style="stop-color:#B2B2B2"/>
					<stop  offset="0.0487" style="stop-color:#9C9C9C"/>
					<stop  offset="0.0707" style="stop-color:#A4A4A4"/>
					<stop  offset="0.0909" style="stop-color:#B0B0B0"/>
					<stop  offset="1" style="stop-color:#CFCFCF"/>
				</linearGradient>
				<rect x="3.86" y="474.9" class="st5" width="401.07" height="12.14"/>
				<linearGradient id="SVGID_5_" gradientUnits="userSpaceOnUse" x1="3.8611" y1="474.598" x2="806" y2="474.598">
					<stop  offset="0" style="stop-color:#666666"/>
					<stop  offset="0.0139" style="stop-color:#D5D5D5"/>
					<stop  offset="0.0234" style="stop-color:#D2D2D2"/>
					<stop  offset="0.0909" style="stop-color:#BCBCBC"/>
					<stop  offset="0.9939" style="stop-color:#FFFFFF"/>
				</linearGradient>
				<rect x="3.86" y="474.3" class="st6" width="802.14" height="0.61"/>
				<linearGradient id="SVGID_6_" gradientUnits="userSpaceOnUse" x1="404.9305" y1="480.9705" x2="806" y2="480.9705">
					<stop  offset="0" style="stop-color:#CFCFCF"/>
					<stop  offset="0.9091" style="stop-color:#B0B0B0"/>
					<stop  offset="0.9293" style="stop-color:#A4A4A4"/>
					<stop  offset="0.9513" style="stop-color:#9C9C9C"/>
					<stop  offset="0.9729" style="stop-color:#B2B2B2"/>
					<stop  offset="0.9861" style="stop-color:#C1C1C1"/>
					<stop  offset="1" style="stop-color:#929292"/>
				</linearGradient>
				<rect x="404.93" y="474.9" class="st7" width="401.07" height="12.14"/>
			</g>
			<g>
				<linearGradient id="SVGID_7_" gradientUnits="userSpaceOnUse" x1="3.8611" y1="480.612" x2="404.9305" y2="480.612">
					<stop  offset="0" style="stop-color:#666666"/>
					<stop  offset="0.0139" style="stop-color:#D5D5D5"/>
					<stop  offset="0.0234" style="stop-color:#D2D2D2"/>
					<stop  offset="0.0909" style="stop-color:#BCBCBC"/>
					<stop  offset="0.9939" style="stop-color:#FFFFFF"/>
				</linearGradient>
				<rect x="3.86" y="474.9" class="st8" width="401.07" height="11.42"/>
				<linearGradient id="SVGID_8_" gradientUnits="userSpaceOnUse" x1="404.9305" y1="480.612" x2="806" y2="480.612">
					<stop  offset="0" style="stop-color:#F0F0F0"/>
					<stop  offset="0.9091" style="stop-color:#BCBCBC"/>
					<stop  offset="0.9129" style="stop-color:#B3B3B3"/>
					<stop  offset="0.9293" style="stop-color:#8F8F8F"/>
					<stop  offset="0.9427" style="stop-color:#797979"/>
					<stop  offset="0.9513" style="stop-color:#717171"/>
					<stop  offset="0.9603" style="stop-color:#878787"/>
					<stop  offset="0.979" style="stop-color:#BEBEBE"/>
					<stop  offset="0.9861" style="stop-color:#D5D5D5"/>
					<stop  offset="1" style="stop-color:#666666"/>
				</linearGradient>
				<rect x="404.93" y="474.9" class="st9" width="401.07" height="11.42"/>
			</g>
			<linearGradient id="SVGID_9_" gradientUnits="userSpaceOnUse" x1="347.8449" y1="478.9461" x2="462.0162" y2="478.9461">
				<stop  offset="0" style="stop-color:#9F9F9F"/>
				<stop  offset="0.0395" style="stop-color:#ADADAD"/>
				<stop  offset="0.514" style="stop-color:#E5E5E5"/>
				<stop  offset="0.9628" style="stop-color:#ADADAD"/>
				<stop  offset="1" style="stop-color:#9F9F9F"/>
			</linearGradient>
			<path class="st10" d="M462.02,474.3c0,2.56-1.04,4.89-2.72,6.57c-1.68,1.68-4,2.72-6.57,2.72h-95.59c-5.13,0-9.29-4.17-9.29-9.3
				H462.02z"/>
			<defs>
				<filter id="Adobe_OpacityMaskFilter" filterUnits="userSpaceOnUse" x="347.39" y="474.3" width="115.07" height="9.98">
					<feFlood  style="flood-color:white;flood-opacity:1" result="back"/>
					<feBlend  in="SourceGraphic" in2="back" mode="normal"/>
				</filter>
			</defs>
			<mask maskUnits="userSpaceOnUse" x="347.39" y="474.3" width="115.07" height="9.98" id="SVGID_10_">
				<g class="st11">
					<defs>
						<filter id="Adobe_OpacityMaskFilter_1_" filterUnits="userSpaceOnUse" x="347.39" y="474.3" width="115.07" height="9.98">
							<feFlood  style="flood-color:white;flood-opacity:1" result="back"/>
							<feBlend  in="SourceGraphic" in2="back" mode="normal"/>
						</filter>
					</defs>
					<mask maskUnits="userSpaceOnUse" x="347.39" y="474.3" width="115.07" height="9.98" id="SVGID_10_">
						<g class="st12">
						</g>
					</mask>
					<linearGradient id="SVGID_11_" gradientUnits="userSpaceOnUse" x1="347.3948" y1="479.2887" x2="462.4663" y2="479.2887">
						<stop  offset="4.122200e-04" style="stop-color:#CCCCCC"/>
						<stop  offset="0.5247" style="stop-color:#B3B3B3"/>
						<stop  offset="0.7671" style="stop-color:#B5B5B5"/>
						<stop  offset="0.891" style="stop-color:#BDBDBD"/>
						<stop  offset="0.988" style="stop-color:#CACACA"/>
						<stop  offset="1" style="stop-color:#CCCCCC"/>
					</linearGradient>
					<path class="st13" d="M462.02,474.3c0,2.56-1.04,4.89-2.72,6.57c-1.68,1.68-4,2.72-6.57,2.72h-95.59
						c-5.13,0-9.29-4.17-9.29-9.3h-0.45v0.69c0,5.13,4.17,9.29,9.3,9.29h96.48c5.14,0,9.3-4.16,9.3-9.29v-0.69H462.02z"/>
				</g>
			</mask>
			<linearGradient id="SVGID_12_" gradientUnits="userSpaceOnUse" x1="347.3948" y1="479.2887" x2="462.4663" y2="479.2887">
				<stop  offset="4.122200e-04" style="stop-color:#F6F6F6"/>
				<stop  offset="0.5247" style="stop-color:#F7F7F7"/>
				<stop  offset="1" style="stop-color:#F6F6F6"/>
			</linearGradient>
			<path class="st14" d="M462.02,474.3c0,2.56-1.04,4.89-2.72,6.57c-1.68,1.68-4,2.72-6.57,2.72h-95.59c-5.13,0-9.29-4.17-9.29-9.3
				h-0.45v0.69c0,5.13,4.17,9.29,9.3,9.29h96.48c5.14,0,9.3-4.16,9.3-9.29v-0.69H462.02z"/>
		</g>
		<linearGradient id="SVGID_13_" gradientUnits="userSpaceOnUse" x1="404.9305" y1="497.7381" x2="404.9305" y2="487.0403">
			<stop  offset="0" style="stop-color:#565656"/>
			<stop  offset="0.7389" style="stop-color:#B9B9B9"/>
			<stop  offset="0.8472" style="stop-color:#B6B6B6"/>
			<stop  offset="0.9363" style="stop-color:#ACACAC"/>
			<stop  offset="1" style="stop-color:#9F9F9F"/>
		</linearGradient>
		<path class="st15" d="M3.86,487.04c28.2,7.09,57.57,10.7,87.12,10.7h313.95h313.95c29.54,0,58.92-3.61,87.12-10.7H404.93H3.86z"/>
	</g>
</g>
<rect x="99.31" y="69.71" class="st16" width="617.75" height="382.22"/>
<defs>
	<filter id="Adobe_OpacityMaskFilter_2_" filterUnits="userSpaceOnUse" x="205.62" y="42.53" width="527.64" height="431.76">
		<feFlood  style="flood-color:white;flood-opacity:1" result="back"/>
		<feBlend  in="SourceGraphic" in2="back" mode="normal"/>
	</filter>
</defs>
<mask maskUnits="userSpaceOnUse" x="205.62" y="42.53" width="527.64" height="431.76" id="SVGID_14_">
	<g class="st17">
		<defs>
			<filter id="Adobe_OpacityMaskFilter_3_" filterUnits="userSpaceOnUse" x="205.62" y="42.53" width="527.64" height="431.76">
				<feFlood  style="flood-color:white;flood-opacity:1" result="back"/>
				<feBlend  in="SourceGraphic" in2="back" mode="normal"/>
			</filter>
		</defs>
		<mask maskUnits="userSpaceOnUse" x="205.62" y="42.53" width="527.64" height="431.76" id="SVGID_14_">
			<g class="st18">
			</g>
		</mask>
		<linearGradient id="SVGID_15_" gradientUnits="userSpaceOnUse" x1="469.4387" y1="474.2953" x2="469.4387" y2="42.5311">
			<stop  offset="0" style="stop-color:#000000"/>
			<stop  offset="0.2797" style="stop-color:#020202"/>
			<stop  offset="0.4173" style="stop-color:#0A0A0A"/>
			<stop  offset="0.524" style="stop-color:#171717"/>
			<stop  offset="0.6147" style="stop-color:#2A2A2A"/>
			<stop  offset="0.6953" style="stop-color:#424242"/>
			<stop  offset="0.7688" style="stop-color:#606060"/>
			<stop  offset="0.8368" style="stop-color:#838383"/>
			<stop  offset="0.9006" style="stop-color:#ADADAD"/>
			<stop  offset="0.9586" style="stop-color:#DADADA"/>
			<stop  offset="1" style="stop-color:#FFFFFF"/>
		</linearGradient>
		<path class="st19" d="M713.45,42.53h-70.08L205.62,474.29h524.77v0h2.87V62.07C733.26,51.28,724.39,42.53,713.45,42.53z
			 M725.37,50.22c0.02,0.02,0.03,0.03,0.05,0.05c0.03,0.03,0.05,0.05,0.08,0.08L725.37,50.22z"/>
	</g>
</mask>
<path class="st20" d="M713.45,42.53h-70.08L205.62,474.29h524.77v0h2.87V62.07C733.26,51.28,724.39,42.53,713.45,42.53z
	 M725.37,50.22c0.02,0.02,0.03,0.03,0.05,0.05c0.03,0.03,0.05,0.05,0.08,0.08L725.37,50.22z"/>
<path class="st21" d="M119.22,195.99h229.97c2.26,0,4.09,1.67,4.09,3.72l0,0c0,2.06-1.83,3.72-4.09,3.72H119.22
	c-2.26,0-4.09-1.67-4.09-3.72l0,0C115.13,197.65,116.96,195.99,119.22,195.99z"/>
<path class="st21" d="M363.09,195.99h169.76c2.26,0,4.09,1.67,4.09,3.72l0,0c0,2.06-1.83,3.72-4.09,3.72H363.09
	c-2.26,0-4.09-1.67-4.09-3.72l0,0C358.99,197.65,360.82,195.99,363.09,195.99z"/>
<path class="st21" d="M549.21,195.99h83.58c2.26,0,4.09,1.67,4.09,3.72l0,0c0,2.06-1.83,3.72-4.09,3.72h-83.58
	c-2.26,0-4.09-1.67-4.09-3.72l0,0C545.11,197.65,546.95,195.99,549.21,195.99z"/>
<path class="st21" d="M645.3,195.99h32.78c2.26,0,4.09,1.67,4.09,3.72l0,0c0,2.06-1.83,3.72-4.09,3.72H645.3
	c-2.26,0-4.09-1.67-4.09-3.72l0,0C641.21,197.65,643.04,195.99,645.3,195.99z"/>
<path class="st21" d="M502.83,214.13h96.04c2.26,0,4.09,1.67,4.09,3.72l0,0c0,2.06-1.83,3.72-4.09,3.72h-96.04
	c-2.26,0-4.09-1.67-4.09-3.72l0,0C498.74,215.8,500.57,214.13,502.83,214.13z"/>
<path class="st21" d="M611.15,214.13h76.19c2.26,0,4.09,1.67,4.09,3.72l0,0c0,2.06-1.83,3.72-4.09,3.72h-76.19
	c-2.26,0-4.09-1.67-4.09-3.72l0,0C607.06,215.8,608.89,214.13,611.15,214.13z"/>
<path class="st21" d="M118.67,214.13h180.55c2.26,0,4.09,1.67,4.09,3.72l0,0c0,2.06-1.83,3.72-4.09,3.72H118.67
	c-2.26,0-4.09-1.67-4.09-3.72l0,0C114.58,215.8,116.41,214.13,118.67,214.13z"/>
<path class="st21" d="M310.83,214.13h180.55c2.26,0,4.09,1.67,4.09,3.72l0,0c0,2.06-1.83,3.72-4.09,3.72H310.83
	c-2.26,0-4.09-1.67-4.09-3.72l0,0C306.73,215.8,308.57,214.13,310.83,214.13z"/>
<path class="st21" d="M118.78,250.42h229.97c2.26,0,4.09,1.67,4.09,3.72l0,0c0,2.06-1.83,3.72-4.09,3.72H118.78
	c-2.26,0-4.09-1.67-4.09-3.72l0,0C114.68,252.09,116.52,250.42,118.78,250.42z"/>
<path class="st21" d="M360.38,250.42h207.65c2.26,0,4.09,1.67,4.09,3.72l0,0c0,2.06-1.83,3.72-4.09,3.72H360.38
	c-2.26,0-4.09-1.67-4.09-3.72l0,0C356.29,252.09,358.12,250.42,360.38,250.42z"/>
<path class="st21" d="M581.39,250.42h59.6c2.26,0,4.09,1.67,4.09,3.72l0,0c0,2.06-1.83,3.72-4.09,3.72h-59.6
	c-2.26,0-4.09-1.67-4.09-3.72l0,0C577.29,252.09,579.13,250.42,581.39,250.42z"/>
<path class="st21" d="M408.61,268.43h75.09c2.26,0,4.09,1.67,4.09,3.72l0,0c0,2.06-1.83,3.72-4.09,3.72h-75.09
	c-2.26,0-4.09-1.67-4.09-3.72l0,0C404.51,270.09,406.35,268.43,408.61,268.43z"/>
<path class="st21" d="M118.47,268.43h142.61c2.26,0,4.09,1.67,4.09,3.72l0,0c0,2.06-1.83,3.72-4.09,3.72H118.47
	c-2.26,0-4.09-1.67-4.09-3.72l0,0C114.37,270.09,116.21,268.43,118.47,268.43z"/>
<path class="st21" d="M273.21,268.43h121.71c2.26,0,4.09,1.67,4.09,3.72l0,0c0,2.06-1.83,3.72-4.09,3.72H273.21
	c-2.26,0-4.09-1.67-4.09-3.72l0,0C269.11,270.09,270.94,268.43,273.21,268.43z"/>
<path class="st21" d="M118.65,232.3h96.04c2.26,0,4.09,1.67,4.09,3.72l0,0c0,2.06-1.83,3.72-4.09,3.72h-96.04
	c-2.26,0-4.09-1.67-4.09-3.72l0,0C114.55,233.96,116.39,232.3,118.65,232.3z"/>
<path class="st21" d="M595.09,232.3h72.12c2.26,0,4.09,1.67,4.09,3.72l0,0c0,2.06-1.83,3.72-4.09,3.72h-72.12
	c-2.26,0-4.09-1.67-4.09-3.72l0,0C590.99,233.96,592.83,232.3,595.09,232.3z"/>
<path class="st21" d="M417.91,232.3h96.04c2.26,0,4.09,1.67,4.09,3.72l0,0c0,2.06-1.83,3.72-4.09,3.72h-96.04
	c-2.26,0-4.09-1.67-4.09-3.72l0,0C413.82,233.96,415.65,232.3,417.91,232.3z"/>
<path class="st21" d="M525.62,232.3h57.44c2.26,0,4.09,1.67,4.09,3.72l0,0c0,2.06-1.83,3.72-4.09,3.72h-57.44
	c-2.26,0-4.09-1.67-4.09-3.72l0,0C521.53,233.96,523.36,232.3,525.62,232.3z"/>
<path class="st21" d="M225.9,232.3h180.55c2.26,0,4.09,1.67,4.09,3.72l0,0c0,2.06-1.83,3.72-4.09,3.72H225.9
	c-2.26,0-4.09-1.67-4.09-3.72l0,0C221.81,233.96,223.64,232.3,225.9,232.3z"/>
<rect x="100.04" y="121.51" class="st22" width="618.96" height="51.58"/>
<path class="st23" d="M243.97,143.57h185.76c2.24,0,4.05,1.65,4.05,3.68l0,0c0,2.03-1.81,3.68-4.05,3.68H243.97
	c-2.24,0-4.05-1.65-4.05-3.68l0,0C239.92,145.22,241.73,143.57,243.97,143.57z"/>
<path class="st23" d="M442.28,143.65h123.65c2.21,0,4.01,1.63,4.01,3.64l0,0c0,2.01-1.79,3.64-4.01,3.64H442.28
	c-2.21,0-4.01-1.63-4.01-3.64l0,0C438.27,145.28,440.07,143.65,442.28,143.65z"/>
<path class="st23" d="M118.59,143.65h111.14c2.21,0,4.01,1.63,4.01,3.64l0,0c0,2.01-1.79,3.64-4.01,3.64H118.59
	c-2.21,0-4.01-1.63-4.01-3.64l0,0C114.58,145.28,116.37,143.65,118.59,143.65z"/>
<path class="st23" d="M578.34,143.57h64.56c2.26,0,4.09,1.67,4.09,3.72l0,0c0,2.06-1.83,3.72-4.09,3.72h-64.56
	c-2.26,0-4.09-1.67-4.09-3.72l0,0C574.24,145.24,576.07,143.57,578.34,143.57z"/>
<rect x="100.04" y="400.42" class="st24" width="618.96" height="51.58"/>
<path class="st23" d="M242.88,422.51h230.06c2.24,0,4.05,1.65,4.05,3.68v0c0,2.03-1.81,3.68-4.05,3.68H242.88
	c-2.24,0-4.05-1.65-4.05-3.68v0C238.83,424.16,240.64,422.51,242.88,422.51z"/>
<path class="st23" d="M485.53,422.51h26.64c2.24,0,4.05,1.65,4.05,3.68v0c0,2.03-1.81,3.68-4.05,3.68h-26.64
	c-2.24,0-4.05-1.65-4.05-3.68v0C481.48,424.16,483.3,422.51,485.53,422.51z"/>
<path class="st23" d="M118.63,422.51h111.05c2.24,0,4.05,1.65,4.05,3.68v0c0,2.03-1.81,3.68-4.05,3.68H118.63
	c-2.24,0-4.05-1.65-4.05-3.68v0C114.58,424.16,116.39,422.51,118.63,422.51z"/>
<path class="st23" d="M525.64,422.43h119.52c2.26,0,4.09,1.67,4.09,3.72l0,0c0,2.06-1.83,3.72-4.09,3.72H525.64
	c-2.26,0-4.09-1.67-4.09-3.72l0,0C521.54,424.1,523.37,422.43,525.64,422.43z"/>
<rect x="100.04" y="297.32" class="st24" width="618.96" height="51.58"/>
<path class="st23" d="M179.46,319.39h157.73c2.26,0,4.09,1.67,4.09,3.72l0,0c0,2.06-1.83,3.72-4.09,3.72H179.46
	c-2.26,0-4.09-1.67-4.09-3.72l0,0C175.37,321.06,177.2,319.39,179.46,319.39z"/>
<path class="st23" d="M349.97,319.39h126.17c2.26,0,4.09,1.67,4.09,3.72l0,0c0,2.06-1.83,3.72-4.09,3.72H349.97
	c-2.26,0-4.09-1.67-4.09-3.72l0,0C345.88,321.06,347.71,319.39,349.97,319.39z"/>
<path class="st23" d="M541.03,319.39h113.03c2.26,0,4.09,1.67,4.09,3.72l0,0c0,2.06-1.83,3.72-4.09,3.72H541.03
	c-2.26,0-4.09-1.67-4.09-3.72l0,0C536.94,321.06,538.77,319.39,541.03,319.39z"/>
<path class="st23" d="M488.44,319.39h38.76c2.26,0,4.09,1.67,4.09,3.72l0,0c0,2.06-1.83,3.72-4.09,3.72h-38.76
	c-2.26,0-4.09-1.67-4.09-3.72l0,0C484.35,321.06,486.18,319.39,488.44,319.39z"/>
<path class="st23" d="M118.67,319.39h45.46c2.26,0,4.09,1.67,4.09,3.72l0,0c0,2.06-1.83,3.72-4.09,3.72h-45.46
	c-2.26,0-4.09-1.67-4.09-3.72l0,0C114.58,321.06,116.41,319.39,118.67,319.39z"/>
<rect x="100" y="348.85" class="st25" width="618.96" height="51.58"/>
<path class="st23" d="M214.36,370.92h157.73c2.26,0,4.09,1.67,4.09,3.72l0,0c0,2.06-1.83,3.72-4.09,3.72H214.36
	c-2.26,0-4.09-1.67-4.09-3.72l0,0C210.26,372.58,212.1,370.92,214.36,370.92z"/>
<path class="st23" d="M385.96,370.92h126.17c2.26,0,4.09,1.67,4.09,3.72l0,0c0,2.06-1.83,3.72-4.09,3.72H385.96
	c-2.26,0-4.09-1.67-4.09-3.72l0,0C381.87,372.58,383.7,370.92,385.96,370.92z"/>
<path class="st23" d="M527.9,370.92H634.7c2.26,0,4.09,1.67,4.09,3.72l0,0c0,2.06-1.83,3.72-4.09,3.72H527.9
	c-2.26,0-4.09-1.67-4.09-3.72l0,0C523.8,372.58,525.63,370.92,527.9,370.92z"/>
<path class="st23" d="M118.64,370.92h80.72c2.26,0,4.09,1.67,4.09,3.72l0,0c0,2.06-1.83,3.72-4.09,3.72h-80.72
	c-2.26,0-4.09-1.67-4.09-3.72l0,0C114.54,372.58,116.38,370.92,118.64,370.92z"/>
<rect x="100.04" y="70" class="st24" width="618.96" height="51.58"/>
<path class="st23" d="M117.86,92.06h203.92c1.81,0,3.28,1.33,3.28,2.98v1.49c0,1.64-1.47,2.98-3.28,2.98H117.86
	c-1.81,0-3.28-1.33-3.28-2.98v-1.49C114.58,93.4,116.05,92.06,117.86,92.06z"/>
<path class="st23" d="M335.13,92.06h76.65c2.26,0,4.09,1.67,4.09,3.72l0,0c0,2.06-1.83,3.72-4.09,3.72h-76.65
	c-2.26,0-4.09-1.67-4.09-3.72l0,0C331.04,93.73,332.87,92.06,335.13,92.06z"/>
<path class="st23" d="M549.43,92.06h63.9c2.26,0,4.09,1.67,4.09,3.72l0,0c0,2.06-1.83,3.72-4.09,3.72h-63.9
	c-2.26,0-4.09-1.67-4.09-3.72l0,0C545.33,93.73,547.16,92.06,549.43,92.06z"/>
<path class="st23" d="M426.62,92.06h107.34c2.26,0,4.09,1.67,4.09,3.72l0,0c0,2.06-1.83,3.72-4.09,3.72H426.62
	c-2.26,0-4.09-1.67-4.09-3.72l0,0C422.53,93.73,424.36,92.06,426.62,92.06z"/>
<polygon class="st26" points="705.9,318.94 693.46,318.94 699.71,326.82 "/>
<polygon class="st26" points="693.33,150.98 705.77,150.91 699.48,143.07 "/>
<polygon class="st26" points="705.9,91.61 693.46,91.62 699.71,99.49 "/>
<polygon class="st26" points="703.88,370.47 691.44,370.47 697.68,378.34 "/>
<polygon class="st26" points="703.88,421.92 691.44,421.93 697.68,429.8 "/>
</svg>
