<svg id="Layer_1" data-name="Layer 1" xmlns="http://www.w3.org/2000/svg" viewBox="0 0 1133.93 769.92"><defs><style>.cls-1{fill:#e1e1e1;}.cls-2{fill:#7d57a4;}.cls-3{fill:#e3e8f5;}.cls-4{fill:#3b3f46;}.cls-5{fill:#596980;}.cls-6{fill:#fdfefe;}</style></defs><title>pop</title><rect class="cls-1" x="27.71" y="253.93" width="436.28" height="15" rx="7.5"/><rect class="cls-1" x="474.44" y="253.93" width="325.98" height="15" rx="7.5"/><rect class="cls-1" x="815.39" y="253.93" width="168.1" height="15" rx="7.5"/><rect class="cls-1" x="991.43" y="253.93" width="75.04" height="15" rx="7.5"/><rect class="cls-1" x="730.44" y="290.5" width="190.93" height="15" rx="7.5"/><rect class="cls-1" x="928.87" y="290.5" width="154.57" height="15" rx="7.5"/><rect class="cls-1" x="26.71" y="290.5" width="345.74" height="15" rx="7.5"/><rect class="cls-1" x="378.71" y="290.5" width="345.74" height="15" rx="7.5"/><rect class="cls-1" x="26.9" y="363.64" width="436.28" height="15" rx="7.5"/><rect class="cls-1" x="469.49" y="363.64" width="395.38" height="15" rx="7.5"/><rect class="cls-1" x="874.34" y="363.64" width="124.18" height="15" rx="7.5"/><rect class="cls-1" x="557.83" y="399.93" width="152.56" height="15" rx="7.5"/><rect class="cls-1" x="26.33" y="399.93" width="276.25" height="15" rx="7.5"/><rect class="cls-1" x="309.79" y="399.93" width="237.96" height="15" rx="7.5"/><rect class="cls-1" x="26.66" y="327.11" width="190.93" height="15" rx="7.5"/><rect class="cls-1" x="899.44" y="327.11" width="147.11" height="15" rx="7.5"/><rect class="cls-1" x="574.88" y="327.11" width="190.93" height="15" rx="7.5"/><rect class="cls-1" x="772.19" y="327.11" width="120.23" height="15" rx="7.5"/><rect class="cls-1" x="223.14" y="327.11" width="345.74" height="15" rx="7.5"/><rect class="cls-2" x="0.07" y="103.81" width="1133.86" height="103.95"/><rect class="cls-3" x="256.31" y="148.29" width="355.12" height="14.84" rx="7.42"/><rect class="cls-3" x="619.67" y="148.44" width="241.2" height="14.68" rx="7.34"/><rect class="cls-3" x="26.71" y="148.44" width="218.27" height="14.68" rx="7.34"/><rect class="cls-3" x="868.75" y="148.29" width="133.26" height="15" rx="7.5"/><rect class="cls-4" x="0.07" y="665.97" width="1133.86" height="103.95"/><rect class="cls-3" x="254.31" y="710.49" width="436.28" height="14.84" rx="7.42"/><rect class="cls-3" x="698.83" y="710.49" width="63.65" height="14.84" rx="7.42"/><rect class="cls-3" x="26.71" y="710.49" width="218.27" height="14.84" rx="7.42"/><rect class="cls-3" x="772.21" y="710.33" width="233.95" height="15" rx="7.5"/><rect class="cls-4" x="0.07" y="458.17" width="1133.86" height="103.95"/><rect class="cls-3" x="138.06" y="502.65" width="303.94" height="15" rx="7.5"/><rect class="cls-3" x="450.42" y="502.65" width="246.13" height="15" rx="7.5"/><rect class="cls-3" x="800.42" y="502.65" width="222.06" height="15" rx="7.5"/><rect class="cls-3" x="704.08" y="502.65" width="86.01" height="15" rx="7.5"/><rect class="cls-3" x="26.71" y="502.65" width="98.28" height="15" rx="7.5"/><rect class="cls-5" y="562.03" width="1133.86" height="103.95"/><rect class="cls-3" x="201.99" y="606.5" width="303.94" height="15" rx="7.5"/><rect class="cls-3" x="516.35" y="606.5" width="246.13" height="15" rx="7.5"/><rect class="cls-3" x="776.35" y="606.5" width="210.66" height="15" rx="7.5"/><rect class="cls-3" x="26.64" y="606.5" width="162.87" height="15" rx="7.5"/><rect class="cls-4" x="0.07" width="1133.86" height="103.95"/><rect class="cls-3" x="26.71" y="44.47" width="385.56" height="15" rx="6"/><rect class="cls-3" x="423.23" y="44.47" width="155.41" height="15" rx="7.5"/><rect class="cls-3" x="815.79" y="44.47" width="132.05" height="15" rx="7.5"/><rect class="cls-3" x="590.83" y="44.47" width="211.64" height="15" rx="7.5"/><polygon class="cls-6" points="1109.94 501.74 1087.15 501.74 1098.59 517.61 1109.94 501.74"/><polygon class="cls-6" points="1086.9 163.21 1109.7 163.08 1098.17 147.28 1086.9 163.21"/><polygon class="cls-6" points="1109.94 43.56 1087.15 43.57 1098.59 59.43 1109.94 43.56"/><polygon class="cls-6" points="1106.23 605.59 1083.44 605.59 1094.88 621.46 1106.23 605.59"/><polygon class="cls-6" points="1106.23 709.3 1083.44 709.31 1094.88 725.17 1106.23 709.3"/></svg>