<?xml version="1.0" encoding="utf-8"?>
<!-- Generator: Adobe Illustrator 23.0.3, SVG Export Plug-In . SVG Version: 6.00 Build 0)  -->
<svg version="1.1" id="_x2018_лой_x5F_1" xmlns="http://www.w3.org/2000/svg" xmlns:xlink="http://www.w3.org/1999/xlink"
	 x="0px" y="0px" viewBox="0 0 2433.74 1368.42" style="enable-background:new 0 0 2433.74 1368.42;" xml:space="preserve">
<style type="text/css">
	.st0{fill:#2B478B;}
	.st1{fill:#DDE7FE;}
	.st2{fill:#AEC3FF;}
</style>
<g>
	<path class="st0" d="M2166.18,1334.84H267.56c-18.58,0-33.78-15.2-33.78-33.78V33.78C233.78,15.2,248.98,0,267.56,0h1898.61
		c18.58,0,33.78,15.2,33.78,33.78v1267.28C2199.96,1319.64,2184.75,1334.84,2166.18,1334.84z"/>
	<rect x="278.13" y="46.64" class="st1" width="1877.48" height="1274.63"/>
	<path class="st0" d="M2409.45,1368.42H24.29c-13.41,0-24.29-10.87-24.29-24.29v-36.88c0-13.41,10.87-24.29,24.29-24.29h2385.16
		c13.41,0,24.29,10.87,24.29,24.29v36.88C2433.74,1357.55,2422.87,1368.42,2409.45,1368.42z"/>
	<rect x="278.13" y="46.64" class="st2" width="1877.48" height="1240.77"/>
</g>
</svg>
