<?xml version="1.0" encoding="utf-8"?>
<!-- Generator: Adobe Illustrator 23.0.3, SVG Export Plug-In . SVG Version: 6.00 Build 0)  -->
<svg version="1.1" id="Layer_1" xmlns="http://www.w3.org/2000/svg" xmlns:xlink="http://www.w3.org/1999/xlink" x="0px" y="0px"
	 viewBox="0 0 810 524" style="enable-background:new 0 0 810 524;" xml:space="preserve">
<style type="text/css">
	.st0{fill:url(#SVGID_1_);}
	.st1{fill:url(#SVGID_2_);}
	.st2{fill:#EBEBEB;}
	.st3{fill:#FFFFFF;}
	.st4{fill:url(#SVGID_3_);}
	.st5{fill:url(#SVGID_4_);}
	.st6{fill:url(#SVGID_5_);}
	.st7{fill:url(#SVGID_6_);}
	.st8{fill:url(#SVGID_7_);}
	.st9{fill:url(#SVGID_8_);}
	.st10{fill:url(#SVGID_9_);}
	.st11{filter:url(#Adobe_OpacityMaskFilter);}
	.st12{filter:url(#Adobe_OpacityMaskFilter_1_);}
	.st13{mask:url(#SVGID_10_);fill:url(#SVGID_11_);}
	.st14{fill:url(#SVGID_12_);}
	.st15{fill:url(#SVGID_13_);}
	.st16{fill:#F4F5F6;}
	.st17{filter:url(#Adobe_OpacityMaskFilter_2_);}
	.st18{filter:url(#Adobe_OpacityMaskFilter_3_);}
	.st19{mask:url(#SVGID_14_);fill:url(#SVGID_15_);}
	.st20{opacity:0.15;fill:url(#SVGID_16_);}
	.st21{fill:#F8F9FB;}
	.st22{fill:#FFFFFF;stroke:#515251;stroke-width:0.3;stroke-miterlimit:10;}
	.st23{fill:#FAC015;}
	.st24{fill:#151617;}
	.st25{fill:#777B7F;}
	.st26{fill:#161718;}
</style>
<g>
	<g>
		<linearGradient id="SVGID_1_" gradientUnits="userSpaceOnUse" x1="329.3224" y1="447.3304" x2="327.0385" y2="452.5506">
			<stop  offset="0" style="stop-color:#EEEEEE"/>
			<stop  offset="0.3322" style="stop-color:#E6E6E6"/>
			<stop  offset="0.447" style="stop-color:#E2E2E2"/>
		</linearGradient>
		<path class="st0" d="M713.49,45.32H102.96c-10.94,0-19.81,8.75-19.81,19.54v408.38h2.83V62.07c0-0.86,0.07-1.71,0.2-2.54
			c0.04-0.28,0.09-0.55,0.15-0.82c0.06-0.27,0.12-0.54,0.19-0.81c0.07-0.27,0.15-0.53,0.23-0.79c0.7-2.22,1.86-4.25,3.37-5.97
			c0.18-0.2,0.36-0.4,0.55-0.59c0.09-0.1,0.19-0.19,0.28-0.29c0.86-0.85,1.82-1.61,2.85-2.26c0.34-0.22,0.7-0.42,1.06-0.62
			c0.36-0.19,0.73-0.37,1.1-0.54c0,0,0,0,0,0c0.25-0.11,0.5-0.21,0.76-0.31c0,0,0,0,0,0c1.92-0.75,4.02-1.16,6.2-1.16h610.53
			c2.92,0,5.67,0.73,8.07,2.02c0.36,0.19,0.71,0.4,1.06,0.62c0.46,0.29,0.9,0.6,1.33,0.93c0,0,0,0,0,0
			c0.21,0.17,0.42,0.34,0.62,0.51c0,0,0,0,0,0c0.31,0.26,0.6,0.54,0.89,0.82c0.1,0.1,0.19,0.19,0.28,0.29
			c0.19,0.19,0.37,0.39,0.55,0.59c2.58,2.93,4.14,6.75,4.14,10.93v411.18h2.87V63.64C732.62,53.42,724.01,45.32,713.49,45.32z"/>
		<linearGradient id="SVGID_2_" gradientUnits="userSpaceOnUse" x1="408.1822" y1="64.8646" x2="408.1822" y2="42.5304">
			<stop  offset="0" style="stop-color:#EEEEEE"/>
			<stop  offset="0.3322" style="stop-color:#E6E6E6"/>
			<stop  offset="0.447" style="stop-color:#E2E2E2"/>
			<stop  offset="1" style="stop-color:#C5C5C5"/>
		</linearGradient>
		<path class="st1" d="M83.1,62.07c0-10.79,8.87-19.54,19.81-19.54h610.53c10.94,0,19.81,8.75,19.81,19.54v1.56
			c-0.64-10.22-9.25-18.31-19.77-18.31H102.96c-10.94,0-19.81,8.75-19.81,19.54L83.1,62.07z"/>
		<g>
			<rect x="85.98" y="461.82" class="st2" width="644.41" height="11.43"/>
			<path class="st3" d="M730.39,62.16v399.65H85.98V62.16c0-9.26,7.6-16.8,16.94-16.8h610.53C722.79,45.36,730.39,52.9,730.39,62.16
				z"/>
			<linearGradient id="SVGID_3_" gradientUnits="userSpaceOnUse" x1="83.1452" y1="473.7726" x2="733.2593" y2="473.7726">
				<stop  offset="0" style="stop-color:#EEEEEE"/>
				<stop  offset="0.3322" style="stop-color:#E6E6E6"/>
				<stop  offset="0.447" style="stop-color:#E2E2E2"/>
				<stop  offset="1" style="stop-color:#C5C5C5"/>
			</linearGradient>
			<polygon class="st4" points="733.26,473.25 733.26,474.3 730.39,474.3 730.39,474.29 85.98,474.29 85.98,474.3 83.15,474.3 
				83.15,473.25 			"/>
		</g>
	</g>
	<g>
		<g>
			<g>
				<linearGradient id="SVGID_4_" gradientUnits="userSpaceOnUse" x1="3.8611" y1="480.9705" x2="404.9305" y2="480.9705">
					<stop  offset="0" style="stop-color:#929292"/>
					<stop  offset="0.0139" style="stop-color:#C1C1C1"/>
					<stop  offset="0.0271" style="stop-color:#B2B2B2"/>
					<stop  offset="0.0487" style="stop-color:#9C9C9C"/>
					<stop  offset="0.0707" style="stop-color:#A4A4A4"/>
					<stop  offset="0.0909" style="stop-color:#B0B0B0"/>
					<stop  offset="1" style="stop-color:#CFCFCF"/>
				</linearGradient>
				<rect x="3.86" y="474.9" class="st5" width="401.07" height="12.14"/>
				<linearGradient id="SVGID_5_" gradientUnits="userSpaceOnUse" x1="3.8611" y1="474.598" x2="806" y2="474.598">
					<stop  offset="0" style="stop-color:#666666"/>
					<stop  offset="0.0139" style="stop-color:#D5D5D5"/>
					<stop  offset="0.0234" style="stop-color:#D2D2D2"/>
					<stop  offset="0.0909" style="stop-color:#BCBCBC"/>
					<stop  offset="0.9939" style="stop-color:#FFFFFF"/>
				</linearGradient>
				<rect x="3.86" y="474.3" class="st6" width="802.14" height="0.61"/>
				<linearGradient id="SVGID_6_" gradientUnits="userSpaceOnUse" x1="404.9305" y1="480.9705" x2="806" y2="480.9705">
					<stop  offset="0" style="stop-color:#CFCFCF"/>
					<stop  offset="0.9091" style="stop-color:#B0B0B0"/>
					<stop  offset="0.9293" style="stop-color:#A4A4A4"/>
					<stop  offset="0.9513" style="stop-color:#9C9C9C"/>
					<stop  offset="0.9729" style="stop-color:#B2B2B2"/>
					<stop  offset="0.9861" style="stop-color:#C1C1C1"/>
					<stop  offset="1" style="stop-color:#929292"/>
				</linearGradient>
				<rect x="404.93" y="474.9" class="st7" width="401.07" height="12.14"/>
			</g>
			<g>
				<linearGradient id="SVGID_7_" gradientUnits="userSpaceOnUse" x1="3.8611" y1="480.612" x2="404.9305" y2="480.612">
					<stop  offset="0" style="stop-color:#666666"/>
					<stop  offset="0.0139" style="stop-color:#D5D5D5"/>
					<stop  offset="0.0234" style="stop-color:#D2D2D2"/>
					<stop  offset="0.0909" style="stop-color:#BCBCBC"/>
					<stop  offset="0.9939" style="stop-color:#FFFFFF"/>
				</linearGradient>
				<rect x="3.86" y="474.9" class="st8" width="401.07" height="11.42"/>
				<linearGradient id="SVGID_8_" gradientUnits="userSpaceOnUse" x1="404.9305" y1="480.612" x2="806" y2="480.612">
					<stop  offset="0" style="stop-color:#F0F0F0"/>
					<stop  offset="0.9091" style="stop-color:#BCBCBC"/>
					<stop  offset="0.9129" style="stop-color:#B3B3B3"/>
					<stop  offset="0.9293" style="stop-color:#8F8F8F"/>
					<stop  offset="0.9427" style="stop-color:#797979"/>
					<stop  offset="0.9513" style="stop-color:#717171"/>
					<stop  offset="0.9603" style="stop-color:#878787"/>
					<stop  offset="0.979" style="stop-color:#BEBEBE"/>
					<stop  offset="0.9861" style="stop-color:#D5D5D5"/>
					<stop  offset="1" style="stop-color:#666666"/>
				</linearGradient>
				<rect x="404.93" y="474.9" class="st9" width="401.07" height="11.42"/>
			</g>
			<linearGradient id="SVGID_9_" gradientUnits="userSpaceOnUse" x1="347.8449" y1="478.9461" x2="462.0162" y2="478.9461">
				<stop  offset="0" style="stop-color:#9F9F9F"/>
				<stop  offset="0.0395" style="stop-color:#ADADAD"/>
				<stop  offset="0.514" style="stop-color:#E5E5E5"/>
				<stop  offset="0.9628" style="stop-color:#ADADAD"/>
				<stop  offset="1" style="stop-color:#9F9F9F"/>
			</linearGradient>
			<path class="st10" d="M462.02,474.3c0,2.56-1.04,4.89-2.72,6.57c-1.68,1.68-4,2.72-6.57,2.72h-95.59c-5.13,0-9.29-4.17-9.29-9.3
				H462.02z"/>
			<defs>
				<filter id="Adobe_OpacityMaskFilter" filterUnits="userSpaceOnUse" x="347.39" y="474.3" width="115.07" height="9.98">
					<feFlood  style="flood-color:white;flood-opacity:1" result="back"/>
					<feBlend  in="SourceGraphic" in2="back" mode="normal"/>
				</filter>
			</defs>
			<mask maskUnits="userSpaceOnUse" x="347.39" y="474.3" width="115.07" height="9.98" id="SVGID_10_">
				<g class="st11">
					<defs>
						<filter id="Adobe_OpacityMaskFilter_1_" filterUnits="userSpaceOnUse" x="347.39" y="474.3" width="115.07" height="9.98">
							<feFlood  style="flood-color:white;flood-opacity:1" result="back"/>
							<feBlend  in="SourceGraphic" in2="back" mode="normal"/>
						</filter>
					</defs>
					<mask maskUnits="userSpaceOnUse" x="347.39" y="474.3" width="115.07" height="9.98" id="SVGID_10_">
						<g class="st12">
						</g>
					</mask>
					<linearGradient id="SVGID_11_" gradientUnits="userSpaceOnUse" x1="347.3948" y1="479.2887" x2="462.4663" y2="479.2887">
						<stop  offset="4.122200e-04" style="stop-color:#CCCCCC"/>
						<stop  offset="0.5247" style="stop-color:#B3B3B3"/>
						<stop  offset="0.7671" style="stop-color:#B5B5B5"/>
						<stop  offset="0.891" style="stop-color:#BDBDBD"/>
						<stop  offset="0.988" style="stop-color:#CACACA"/>
						<stop  offset="1" style="stop-color:#CCCCCC"/>
					</linearGradient>
					<path class="st13" d="M462.02,474.3c0,2.56-1.04,4.89-2.72,6.57c-1.68,1.68-4,2.72-6.57,2.72h-95.59
						c-5.13,0-9.29-4.17-9.29-9.3h-0.45v0.69c0,5.13,4.17,9.29,9.3,9.29h96.48c5.14,0,9.3-4.16,9.3-9.29v-0.69H462.02z"/>
				</g>
			</mask>
			<linearGradient id="SVGID_12_" gradientUnits="userSpaceOnUse" x1="347.3948" y1="479.2887" x2="462.4663" y2="479.2887">
				<stop  offset="4.122200e-04" style="stop-color:#F6F6F6"/>
				<stop  offset="0.5247" style="stop-color:#F7F7F7"/>
				<stop  offset="1" style="stop-color:#F6F6F6"/>
			</linearGradient>
			<path class="st14" d="M462.02,474.3c0,2.56-1.04,4.89-2.72,6.57c-1.68,1.68-4,2.72-6.57,2.72h-95.59c-5.13,0-9.29-4.17-9.29-9.3
				h-0.45v0.69c0,5.13,4.17,9.29,9.3,9.29h96.48c5.14,0,9.3-4.16,9.3-9.29v-0.69H462.02z"/>
		</g>
		<linearGradient id="SVGID_13_" gradientUnits="userSpaceOnUse" x1="404.9305" y1="497.7381" x2="404.9305" y2="487.0403">
			<stop  offset="0" style="stop-color:#565656"/>
			<stop  offset="0.7389" style="stop-color:#B9B9B9"/>
			<stop  offset="0.8472" style="stop-color:#B6B6B6"/>
			<stop  offset="0.9363" style="stop-color:#ACACAC"/>
			<stop  offset="1" style="stop-color:#9F9F9F"/>
		</linearGradient>
		<path class="st15" d="M3.86,487.04c28.2,7.09,57.57,10.7,87.12,10.7h313.95h313.95c29.54,0,58.92-3.61,87.12-10.7H404.93H3.86z"/>
	</g>
</g>
<rect x="99.31" y="69.71" class="st16" width="617.75" height="382.22"/>
<defs>
	<filter id="Adobe_OpacityMaskFilter_2_" filterUnits="userSpaceOnUse" x="205.62" y="42.53" width="527.64" height="431.76">
		<feFlood  style="flood-color:white;flood-opacity:1" result="back"/>
		<feBlend  in="SourceGraphic" in2="back" mode="normal"/>
	</filter>
</defs>
<mask maskUnits="userSpaceOnUse" x="205.62" y="42.53" width="527.64" height="431.76" id="SVGID_14_">
	<g class="st17">
		<defs>
			<filter id="Adobe_OpacityMaskFilter_3_" filterUnits="userSpaceOnUse" x="205.62" y="42.53" width="527.64" height="431.76">
				<feFlood  style="flood-color:white;flood-opacity:1" result="back"/>
				<feBlend  in="SourceGraphic" in2="back" mode="normal"/>
			</filter>
		</defs>
		<mask maskUnits="userSpaceOnUse" x="205.62" y="42.53" width="527.64" height="431.76" id="SVGID_14_">
			<g class="st18">
			</g>
		</mask>
		<linearGradient id="SVGID_15_" gradientUnits="userSpaceOnUse" x1="469.4387" y1="474.2953" x2="469.4387" y2="42.5311">
			<stop  offset="0" style="stop-color:#000000"/>
			<stop  offset="0.2797" style="stop-color:#020202"/>
			<stop  offset="0.4173" style="stop-color:#0A0A0A"/>
			<stop  offset="0.524" style="stop-color:#171717"/>
			<stop  offset="0.6147" style="stop-color:#2A2A2A"/>
			<stop  offset="0.6953" style="stop-color:#424242"/>
			<stop  offset="0.7688" style="stop-color:#606060"/>
			<stop  offset="0.8368" style="stop-color:#838383"/>
			<stop  offset="0.9006" style="stop-color:#ADADAD"/>
			<stop  offset="0.9586" style="stop-color:#DADADA"/>
			<stop  offset="1" style="stop-color:#FFFFFF"/>
		</linearGradient>
		<path class="st19" d="M713.45,42.53h-70.08L205.62,474.29h524.77v0h2.87V62.07C733.26,51.28,724.39,42.53,713.45,42.53z
			 M725.37,50.22c0.02,0.02,0.03,0.03,0.05,0.05c0.03,0.03,0.05,0.05,0.08,0.08L725.37,50.22z"/>
	</g>
</mask>
<linearGradient id="SVGID_16_" gradientUnits="userSpaceOnUse" x1="469.3403" y1="492.2633" x2="471.6371" y2="73.0258">
	<stop  offset="0" style="stop-color:#000000"/>
	<stop  offset="0.3726" style="stop-color:#020202"/>
	<stop  offset="0.5069" style="stop-color:#090909"/>
	<stop  offset="0.6026" style="stop-color:#141414"/>
	<stop  offset="0.68" style="stop-color:#252525"/>
	<stop  offset="0.7463" style="stop-color:#3B3B3B"/>
	<stop  offset="0.805" style="stop-color:#575757"/>
	<stop  offset="0.8581" style="stop-color:#777777"/>
	<stop  offset="0.9069" style="stop-color:#9D9D9D"/>
	<stop  offset="0.9523" style="stop-color:#C8C8C8"/>
	<stop  offset="0.9926" style="stop-color:#F6F6F6"/>
	<stop  offset="1" style="stop-color:#FFFFFF"/>
</linearGradient>
<path class="st20" d="M713.45,42.53h-70.08L205.62,474.29h524.77v0h2.87V62.07C733.26,51.28,724.39,42.53,713.45,42.53z
	 M725.37,50.22c0.02,0.02,0.03,0.03,0.05,0.05c0.03,0.03,0.05,0.05,0.08,0.08L725.37,50.22z"/>
<rect x="99" y="70" class="st21" width="617" height="382"/>
<path class="st22" d="M114.54,82.24H701.3c1.7,0,3.07,1.25,3.07,2.8v183.68c0,1.55-1.37,2.8-3.07,2.8H114.54
	c-1.69,0-3.07-1.25-3.07-2.8V85.04C111.47,83.5,112.84,82.24,114.54,82.24z"/>
<path class="st22" d="M113.98,283.79h587.04c1.7,0,3.07,1.25,3.07,2.8v38.62c0,1.55-1.37,2.8-3.07,2.8H113.98
	c-1.69,0-3.07-1.25-3.07-2.8v-38.62C110.91,285.04,112.29,283.79,113.98,283.79z"/>
<path class="st22" d="M113.98,396.31h587.04c1.7,0,3.07,1.25,3.07,2.8v38.42c0,1.55-1.37,2.8-3.07,2.8H113.98
	c-1.69,0-3.07-1.25-3.07-2.8v-38.42C110.91,397.57,112.29,396.31,113.98,396.31z"/>
<polygon class="st23" points="682.41,110.11 679.2,110.11 679.2,107.19 677.45,107.19 677.45,110.11 674.25,110.11 674.25,111.71 
	677.45,111.71 677.45,114.63 679.2,114.63 679.2,111.71 682.41,111.71 "/>
<polygon class="st23" points="681.88,307.9 679.57,305.88 681.79,303.77 680.53,302.66 678.3,304.77 676,302.74 674.78,303.89 
	677.08,305.92 674.86,308.02 676.12,309.13 678.35,307.03 680.66,309.06 "/>
<polygon class="st23" points="681.88,420.33 679.57,418.3 681.79,416.2 680.53,415.08 678.3,417.19 676,415.16 674.78,416.32 
	677.08,418.34 674.86,420.44 676.12,421.55 678.35,419.46 680.66,421.48 "/>
<path class="st24" d="M124.22,107.44H327.5c1.8,0,3.26,1.33,3.26,2.98v1.49c0,1.64-1.46,2.98-3.26,2.98H124.22
	c-1.8,0-3.26-1.33-3.26-2.98v-1.49C120.96,108.77,122.42,107.44,124.22,107.44z"/>
<path class="st24" d="M340.81,107.44h76.41c2.25,0,4.08,1.67,4.08,3.72l0,0c0,2.05-1.83,3.72-4.08,3.72h-76.41
	c-2.25,0-4.08-1.67-4.08-3.72l0,0C336.73,109.11,338.55,107.44,340.81,107.44z"/>
<path class="st24" d="M554.42,107.44h63.69c2.25,0,4.08,1.67,4.08,3.72l0,0c0,2.05-1.83,3.72-4.08,3.72h-63.69
	c-2.25,0-4.08-1.67-4.08-3.72l0,0C550.34,109.11,552.17,107.44,554.42,107.44z"/>
<path class="st24" d="M432.01,107.44h107c2.25,0,4.08,1.67,4.08,3.72l0,0c0,2.05-1.83,3.72-4.08,3.72h-107
	c-2.25,0-4.08-1.67-4.08-3.72l0,0C427.93,109.11,429.75,107.44,432.01,107.44z"/>
<path class="st25" d="M125.78,151.64h225.43c2.25,0,4.08,1.67,4.08,3.72l0,0c0,2.05-1.83,3.72-4.08,3.72H125.78
	c-2.25,0-4.08-1.67-4.08-3.72l0,0C121.7,153.3,123.52,151.64,125.78,151.64z"/>
<path class="st25" d="M363.87,151.64h166.38c2.25,0,4.08,1.67,4.08,3.72l0,0c0,2.05-1.83,3.72-4.08,3.72H363.87
	c-2.25,0-4.08-1.67-4.08-3.72l0,0C359.79,153.3,361.62,151.64,363.87,151.64z"/>
<path class="st25" d="M543.16,151.64h81.85c2.25,0,4.08,1.67,4.08,3.72l0,0c0,2.05-1.83,3.72-4.08,3.72h-81.85
	c-2.25,0-4.08-1.67-4.08-3.72l0,0C539.08,153.3,540.91,151.64,543.16,151.64z"/>
<path class="st25" d="M637.42,151.64h32.02c2.25,0,4.08,1.67,4.08,3.72l0,0c0,2.05-1.83,3.72-4.08,3.72h-32.02
	c-2.25,0-4.08-1.67-4.08-3.72l0,0C633.34,153.3,635.16,151.64,637.42,151.64z"/>
<path class="st25" d="M502.03,169.79h94.07c2.25,0,4.08,1.67,4.08,3.72l0,0c0,2.05-1.83,3.72-4.08,3.72h-94.07
	c-2.25,0-4.08-1.67-4.08-3.72l0,0C497.95,171.45,499.78,169.79,502.03,169.79z"/>
<path class="st25" d="M608.28,169.79h74.6c2.25,0,4.08,1.67,4.08,3.72l0,0c0,2.05-1.83,3.72-4.08,3.72h-74.6
	c-2.25,0-4.08-1.67-4.08-3.72l0,0C604.2,171.45,606.02,169.79,608.28,169.79z"/>
<path class="st25" d="M125.24,169.79h176.96c2.25,0,4.08,1.67,4.08,3.72l0,0c0,2.05-1.83,3.72-4.08,3.72H125.24
	c-2.25,0-4.08-1.67-4.08-3.72l0,0C121.16,171.45,122.99,169.79,125.24,169.79z"/>
<path class="st25" d="M313.71,169.79h176.96c2.25,0,4.08,1.67,4.08,3.72l0,0c0,2.05-1.83,3.72-4.08,3.72H313.71
	c-2.25,0-4.08-1.67-4.08-3.72l0,0C309.63,171.45,311.45,169.79,313.71,169.79z"/>
<path class="st25" d="M125.34,205.58h225.43c2.25,0,4.08,1.67,4.08,3.72l0,0c0,2.05-1.83,3.72-4.08,3.72H125.34
	c-2.25,0-4.08-1.67-4.08-3.72l0,0C121.26,207.24,123.09,205.58,125.34,205.58z"/>
<path class="st25" d="M362.31,205.58h203.53c2.25,0,4.08,1.67,4.08,3.72l0,0c0,2.05-1.83,3.72-4.08,3.72H362.31
	c-2.25,0-4.08-1.67-4.08-3.72l0,0C358.23,207.24,360.06,205.58,362.31,205.58z"/>
<path class="st25" d="M579.08,205.58h58.33c2.25,0,4.08,1.67,4.08,3.72l0,0c0,2.05-1.83,3.72-4.08,3.72h-58.33
	c-2.25,0-4.08-1.67-4.08-3.72l0,0C575,207.24,576.82,205.58,579.08,205.58z"/>
<path class="st25" d="M533.4,225.25h109.83c2.25,0,4.08,1.67,4.08,3.72l0,0c0,2.05-1.83,3.72-4.08,3.72H533.4
	c-2.25,0-4.08-1.67-4.08-3.72l0,0C529.32,226.91,531.15,225.25,533.4,225.25z"/>
<path class="st25" d="M125.04,225.25h205.51c2.25,0,4.08,1.67,4.08,3.72l0,0c0,2.05-1.83,3.72-4.08,3.72H125.04
	c-2.25,0-4.08-1.67-4.08-3.72l0,0C120.96,226.91,122.78,225.25,125.04,225.25z"/>
<path class="st25" d="M344.27,225.25h175.89c2.25,0,4.08,1.67,4.08,3.72l0,0c0,2.05-1.83,3.72-4.08,3.72H344.27
	c-2.25,0-4.08-1.67-4.08-3.72l0,0C340.19,226.91,342.02,225.25,344.27,225.25z"/>
<path class="st25" d="M125.22,187.94h94.07c2.25,0,4.08,1.67,4.08,3.72l0,0c0,2.05-1.83,3.72-4.08,3.72h-94.07
	c-2.25,0-4.08-1.67-4.08-3.72l0,0C121.14,189.61,122.96,187.94,125.22,187.94z"/>
<path class="st25" d="M592.52,187.94h70.6c2.25,0,4.08,1.67,4.08,3.72l0,0c0,2.05-1.83,3.72-4.08,3.72h-70.6
	c-2.25,0-4.08-1.67-4.08-3.72l0,0C588.44,189.61,590.27,187.94,592.52,187.94z"/>
<path class="st25" d="M418.74,187.94h94.07c2.25,0,4.08,1.67,4.08,3.72l0,0c0,2.05-1.83,3.72-4.08,3.72h-94.07
	c-2.25,0-4.08-1.67-4.08-3.72l0,0C414.66,189.61,416.49,187.94,418.74,187.94z"/>
<path class="st25" d="M524.39,187.94h56.21c2.25,0,4.08,1.67,4.08,3.72l0,0c0,2.05-1.83,3.72-4.08,3.72h-56.21
	c-2.25,0-4.08-1.67-4.08-3.72l0,0C520.3,189.61,522.13,187.94,524.39,187.94z"/>
<path class="st25" d="M230.41,187.94h176.96c2.25,0,4.08,1.67,4.08,3.72l0,0c0,2.05-1.83,3.72-4.08,3.72H230.41
	c-2.25,0-4.08-1.67-4.08-3.72l0,0C226.33,189.61,228.16,187.94,230.41,187.94z"/>
<path class="st26" d="M180.6,304.13h157.23c2.25,0,4.08,1.67,4.08,3.72l0,0c0,2.05-1.83,3.72-4.08,3.72H180.6
	c-2.25,0-4.08-1.67-4.08-3.72l0,0C176.52,305.79,178.34,304.13,180.6,304.13z"/>
<path class="st26" d="M350.57,304.13h125.77c2.25,0,4.08,1.67,4.08,3.72l0,0c0,2.05-1.83,3.72-4.08,3.72H350.57
	c-2.25,0-4.08-1.67-4.08-3.72l0,0C346.49,305.79,348.32,304.13,350.57,304.13z"/>
<path class="st26" d="M541.03,304.13H653.7c2.25,0,4.08,1.67,4.08,3.72l0,0c0,2.05-1.83,3.72-4.08,3.72H541.03
	c-2.25,0-4.08-1.67-4.08-3.72l0,0C536.94,305.79,538.77,304.13,541.03,304.13z"/>
<path class="st26" d="M488.6,304.13h38.64c2.25,0,4.08,1.67,4.08,3.72l0,0c0,2.05-1.83,3.72-4.08,3.72H488.6
	c-2.25,0-4.08-1.67-4.08-3.72l0,0C484.52,305.79,486.35,304.13,488.6,304.13z"/>
<path class="st26" d="M120,304.13h45.32c2.25,0,4.08,1.67,4.08,3.72l0,0c0,2.05-1.83,3.72-4.08,3.72H120
	c-2.25,0-4.08-1.67-4.08-3.72l0,0C115.92,305.79,117.75,304.13,120,304.13z"/>
<path class="st26" d="M243.81,414.68h229.33c2.23,0,4.04,1.65,4.04,3.68v0c0,2.03-1.81,3.68-4.04,3.68H243.81
	c-2.23,0-4.04-1.65-4.04-3.68v0C239.77,416.33,241.58,414.68,243.81,414.68z"/>
<path class="st26" d="M485.7,414.68h26.56c2.23,0,4.04,1.65,4.04,3.68v0c0,2.03-1.81,3.68-4.04,3.68H485.7
	c-2.23,0-4.04-1.65-4.04-3.68v0C481.66,416.33,483.47,414.68,485.7,414.68z"/>
<path class="st26" d="M119.96,414.68h110.7c2.23,0,4.04,1.65,4.04,3.68v0c0,2.03-1.81,3.68-4.04,3.68h-110.7
	c-2.23,0-4.04-1.65-4.04-3.68v0C115.92,416.33,117.73,414.68,119.96,414.68z"/>
<path class="st26" d="M525.67,414.6h119.14c2.25,0,4.08,1.67,4.08,3.72l0,0c0,2.05-1.83,3.72-4.08,3.72H525.67
	c-2.25,0-4.08-1.67-4.08-3.72l0,0C521.59,416.26,523.42,414.6,525.67,414.6z"/>
<path class="st22" d="M113.98,340.81h587.04c1.7,0,3.07,1.25,3.07,2.8v37.6c0,1.55-1.37,2.8-3.07,2.8H113.98
	c-1.69,0-3.07-1.25-3.07-2.8v-37.6C110.91,342.07,112.29,340.81,113.98,340.81z"/>
<polygon class="st23" points="681.88,364.55 679.57,362.53 681.79,360.42 680.53,359.31 678.3,361.42 676,359.39 674.78,360.54 
	677.08,362.57 674.86,364.67 676.12,365.78 678.35,363.68 680.66,365.7 "/>
<path class="st26" d="M215.75,358.69h157.37c1.86,0,3.37,1.37,3.37,3.07v1.3c0,1.7-1.51,3.07-3.37,3.07H215.75
	c-1.86,0-3.37-1.37-3.37-3.07v-1.3C212.39,360.07,213.89,358.69,215.75,358.69z"/>
<path class="st26" d="M385.48,358.69h126.15c1.86,0,3.37,1.37,3.37,3.07v1.3c0,1.7-1.51,3.07-3.37,3.07H385.48
	c-1.86,0-3.37-1.37-3.37-3.07v-1.3C382.12,360.07,383.62,358.69,385.48,358.69z"/>
<path class="st26" d="M525.86,358.69h107c1.86,0,3.37,1.37,3.37,3.07v1.3c0,1.7-1.51,3.07-3.37,3.07h-107
	c-1.86,0-3.37-1.37-3.37-3.07v-1.3C522.49,360.07,524,358.69,525.86,358.69z"/>
<path class="st26" d="M121.08,358.69h81.2c1.86,0,3.37,1.37,3.37,3.07v1.3c0,1.7-1.51,3.07-3.37,3.07h-81.2
	c-1.86,0-3.37-1.37-3.37-3.07v-1.3C117.71,360.07,119.22,358.69,121.08,358.69z"/>
</svg>
