<?xml version="1.0"?>
<svg data-name="BLACK SILHOUETTE" xmlns="http://www.w3.org/2000/svg" viewBox="0 0 500 500">
    <path d="M445.8 347.37c-1.71-5.67-9.92-9.66-9.92-9.66-.75-.42-1.45-.78-2-1.06a158.3 158.3 0 01-35.93-23.55 121.44 121.44 0 01-20.84-23.72 90.48 90.48 0 01-11.48-23.68c-.77-3.05-.65-4.26 0-5.85a9.29 9.29 0 012.87-3.21c4.61-3.25 12-8.06 16.59-11 3.94-2.56 7.34-4.76 9.32-6.14 6.41-4.48 10.79-9 13.38-14a24.09 24.09 0 001.14-20.27c-3.52-9.29-12.2-14.84-23.22-14.84a35 35 0 00-7.48.82 115.31 115.31 0 00-17.32 5.57.54.54 0 01-.74-.53c.53-12.43 1.12-29.12-.25-45-1.24-14.35-4.2-26.45-9-37a101.69 101.69 0 00-41.51-44.54c-17.54-10-37.51-15.12-59.34-15.12s-41.73 5.09-59.29 15.12a100.14 100.14 0 00-25.47 20.46 98.89 98.89 0 00-16.09 24.08c-4.83 10.53-7.78 22.63-9 37-1.38 15.91-.82 31.28-.25 45a.55.55 0 01-.76.54 116.34 116.34 0 00-17.31-5.56 35 35 0 00-7.48-.82c-11 0-19.7 5.55-23.22 14.84a24.13 24.13 0 001.14 20.27c2.59 4.92 7 9.48 13.38 14 2 1.38 5.38 3.58 9.33 6.14 4.46 2.89 11.66 7.56 16.3 10.81a9.87 9.87 0 013.14 3.41c.67 1.63.78 2.86-.06 6.09a90.57 90.57 0 01-11.41 23.44 121.44 121.44 0 01-20.84 23.72 157.86 157.86 0 01-35.93 23.55c-.64.31-1.42.7-2.25 1.18s-8.14 4.17-9.68 9.54c-2.28 7.95 3.77 15.39 10 19.38 10.1 6.52 22.41 10 29.55 11.93 2 .53 3.79 1 5.43 1.52 1 .34 3.6 1.31 4.69 2.72 1.39 1.78 1.55 4 2 6.47.79 4.18 2.53 9.38 7.71 13 5.68 3.93 12.91 4.2 22.07 4.55 9.57.37 21.48.83 35.11 5.33 6.32 2.08 12 5.6 18.68 9.68C203.32 430.41 220.55 441 250 441s46.81-10.65 60.75-19.2c6.58-4 12.27-7.53 18.45-9.57 13.63-4.51 25.55-5 35.12-5.33 9.15-.35 16.38-.62 22.07-4.56s7.14-9.51 7.86-13.82c.38-2.13.66-4 1.87-5.6 1.05-1.34 3.42-2.28 4.54-2.66 1.68-.53 3.54-1 5.6-1.58 7.14-1.9 16.08-4.17 27-10.32 13-7.36 13.89-16.49 12.54-20.99z"
          fill="rgb(255, 252, 0)"/>
</svg>