<?xml version="1.0"?>
<svg xmlns="http://www.w3.org/2000/svg" viewBox="0 0 51 51">
    <g fill="none" fill-rule="evenodd">
        <path d="M-20 70v-90h90v90z"/>
        <g fill-rule="nonzero">
            <path fill="#000"
                  d="M44.691 8.617l-7.13 36.41s-.307 1.663-2.37 1.663c-1.097 0-1.663-.521-1.663-.521L18.082 33.35l-7.557-3.809-9.7-2.58S-.9 26.465-.9 25.037c0-1.19 1.776-1.757 1.776-1.757L41.453 7.16c-.002-.002 1.24-.447 2.144-.445.556 0 1.19.237 1.19.951 0 .476-.096.952-.096.952z"/>
            <path fill="#333"
                  d="M23.846 38.133l-6.522 6.423s-.283.219-.662.229a.94.94 0 01-.417-.082l1.835-11.356 5.766 4.786z"/>
            <path fill="#111"
                  d="M36.976 14.701a.952.952 0 00-1.335-.177l-25.12 15.033s4.009 11.217 4.62 13.158c.613 1.944 1.104 1.99 1.104 1.99l1.835-11.356 18.717-17.315a.95.95 0 00.179-1.333z"/>
        </g>
    </g>
</svg>